<svg xmlns="http://www.w3.org/2000/svg" width="64" height="48" viewBox="0 0 64 48" fill="none"><path d="M21.472 47.4864C15.4357 47.4864 9.39993 47.4864 3.36363 47.4864C2.73885 47.4864 2.44718 47.1919 2.44718 46.5637C2.44772 39.2228 2.44718 31.8819 2.44987 24.5405C2.44987 24.3688 2.44395 24.2536 2.23623 24.1793C0.847291 23.684 -0.0465578 22.3818 0.0018747 20.9589C0.0524598 19.4839 1.03994 18.2225 2.47355 17.8252C2.65867 17.7741 2.7297 17.6906 2.7636 17.5103C3.53745 13.3521 5.48336 9.83079 8.57712 6.95871C11.292 4.43818 14.4859 2.84791 18.1361 2.19274C18.3196 2.1599 18.4224 2.08292 18.5112 1.91065C19.1451 0.685376 20.1369 -0.0236243 21.5398 0.000601284C22.9266 0.0242885 23.9351 0.705833 24.5426 1.95641C24.6169 2.1093 24.7111 2.16367 24.8612 2.19113C32.421 3.56822 38.3701 9.25637 40.0841 16.7448C40.1422 16.9978 40.1966 17.2524 40.2348 17.5092C40.2622 17.6906 40.3456 17.7698 40.5259 17.8274C41.7706 18.2241 42.6203 19.0295 42.9152 20.3221C43.2892 21.9613 42.3965 23.5694 40.8122 24.1653C40.6098 24.2412 40.5463 24.3273 40.5463 24.5427C40.5528 31.8744 40.5517 39.2067 40.5517 46.5384C40.5517 47.2043 40.2724 47.4859 39.6073 47.4859C33.5624 47.4864 27.5175 47.4864 21.472 47.4864ZM28.6406 45.9128C28.6454 45.8025 28.6529 45.7147 28.6529 45.627C28.6535 37.3714 28.654 29.1159 28.6486 20.8604C28.6486 20.4766 28.6131 20.089 28.5555 19.7089C27.976 15.8716 24.3075 13.1594 20.4861 13.7349C16.9307 14.2705 14.3476 17.2729 14.347 20.8744C14.346 29.1122 14.3465 37.3499 14.3465 45.5871C14.3465 45.6916 14.3465 45.796 14.3465 45.9128C19.1246 45.9128 23.8662 45.9128 28.6406 45.9128ZM12.7881 45.9123C12.7881 45.7648 12.7881 45.6485 12.7881 45.5322C12.7881 37.3025 12.787 29.0729 12.7897 20.8432C12.7902 19.2481 13.197 17.7617 14.0075 16.3835C16.8128 11.6122 23.4125 10.6491 27.4201 14.4363C29.2696 16.1843 30.2065 18.3436 30.2092 20.8879C30.2178 29.0729 30.2125 37.2573 30.2125 45.4423C30.2125 45.599 30.2125 45.7556 30.2125 45.9069C31.0703 45.9069 31.8823 45.9069 32.711 45.9069C32.711 45.7809 32.711 45.6738 32.711 45.5672C32.711 38.4056 32.7116 31.244 32.7089 24.0819C32.7089 23.9796 32.6701 23.8762 32.6454 23.7745C32.5733 23.4838 32.4409 23.1941 32.4361 22.9023C32.4134 21.5387 32.4274 20.174 32.4248 18.8098C32.4242 18.6677 32.4194 18.5202 32.3822 18.3846C31.2731 14.2877 28.6911 11.5917 24.6632 10.2749C24.4038 10.1904 24.1579 10.1339 23.8888 10.2701C23.7612 10.3347 23.5917 10.3309 23.4416 10.3314C22.1409 10.3358 20.8402 10.3379 19.5401 10.3288C19.3474 10.3271 19.1564 10.2555 18.9632 10.2286C18.8367 10.2109 18.6974 10.1812 18.5806 10.2152C14.8771 11.2935 12.336 13.6444 10.9654 17.247C10.7706 17.7585 10.6134 18.3151 10.5925 18.8561C10.5397 20.2182 10.5838 21.5839 10.5666 22.9476C10.5634 23.1979 10.4574 23.4472 10.396 23.6964C10.3627 23.8315 10.2932 23.9656 10.2932 24.1002C10.2879 31.2709 10.2884 38.4417 10.2884 45.6124C10.2884 45.7083 10.2884 45.8036 10.2884 45.9123C11.1322 45.9123 11.9437 45.9123 12.7881 45.9123ZM9.0044 19.2524C8.91884 19.247 8.85749 19.2394 8.79614 19.2394C7.02943 19.2394 5.26272 19.24 3.49601 19.2427C3.37977 19.2427 3.263 19.2529 3.14784 19.2691C2.13936 19.4063 1.45969 20.2908 1.58131 21.2938C1.66526 21.9866 2.29811 22.848 3.517 22.8291C5.24765 22.8022 6.97885 22.8184 8.7095 22.8162C8.80421 22.8162 8.89893 22.8162 9.0044 22.8162C9.0044 21.6109 9.0044 20.4464 9.0044 19.2524ZM33.9993 22.8232C34.2168 22.8232 34.4207 22.8232 34.6241 22.8232C36.3268 22.8211 38.03 22.8377 39.7321 22.8098C40.8977 22.7909 41.7039 21.6254 41.3622 20.5169C41.1232 19.7423 40.3822 19.2421 39.4459 19.2394C37.7071 19.2351 35.9684 19.2384 34.2297 19.2389C34.1527 19.2389 34.0758 19.2497 33.9988 19.2556C33.9993 20.4523 33.9993 21.6238 33.9993 22.8232ZM31.9921 13.7602C33.3977 12.9871 34.7829 12.2259 36.1885 11.4534C35.01 9.64882 33.5839 8.12477 31.8506 6.85158C31.0057 8.23028 30.1748 9.58584 29.3369 10.9527C30.3674 11.764 31.2419 12.6916 31.9921 13.7602ZM6.82763 11.4302C6.86422 11.463 6.88683 11.4921 6.91696 11.5088C8.23379 12.2345 9.55276 12.9564 10.8674 13.6864C11.0251 13.7742 11.0682 13.6762 11.1381 13.5798C11.7333 12.7551 12.4146 12.0089 13.1868 11.3468C13.3413 11.2143 13.4973 11.0835 13.6593 10.9462C12.8177 9.57399 11.9878 8.21952 11.1478 6.84943C9.41608 8.13715 7.98463 9.64883 6.82763 11.4302ZM23.2516 8.76271C23.2667 8.72126 23.278 8.70511 23.278 8.68896C23.2785 6.85104 23.299 5.01313 23.2694 3.17576C23.2554 2.30526 22.4643 1.58549 21.5942 1.55211C20.5647 1.51281 19.7236 2.33594 19.7182 3.4121C19.7096 5.12457 19.7161 6.83705 19.7171 8.54899C19.7171 8.61736 19.7295 8.68573 19.737 8.76217C20.9166 8.76271 22.0785 8.76271 23.2516 8.76271ZM30.5531 5.97892C28.7762 4.90654 26.8938 4.16901 24.8752 3.7814C24.8591 3.82662 24.8483 3.84331 24.8483 3.86C24.8467 5.42066 24.8434 6.98132 24.8521 8.54145C24.8526 8.61359 24.9478 8.72233 25.0232 8.75086C25.3315 8.8693 25.6587 8.94144 25.9617 9.07172C26.6656 9.37373 27.3592 9.69889 28.075 10.023C28.887 8.69757 29.7141 7.3474 30.5531 5.97892ZM18.1436 3.77386C16.0965 4.17762 14.2168 4.906 12.4469 5.98108C13.2874 7.35224 14.1178 8.70618 14.9525 10.0671C15.9007 9.51047 16.8682 9.0701 17.8998 8.78317C18.1049 8.7261 18.1614 8.63997 18.1603 8.43486C18.1517 6.97325 18.1555 5.51164 18.1549 4.05003C18.1555 3.9709 18.149 3.89176 18.1436 3.77386ZM10.1356 15.0635C8.79668 14.327 7.41797 13.5691 6.0215 12.8014C5.20891 14.3416 4.64171 15.9485 4.31614 17.6772C4.60942 17.6772 4.86773 17.6772 5.1255 17.6772C6.39766 17.6772 7.66928 17.6777 8.94144 17.6772C9.06521 17.6772 9.17392 17.6912 9.23419 17.5216C9.5194 16.7135 9.82291 15.9114 10.1356 15.0635ZM38.6833 17.6626C38.3513 15.9432 37.7916 14.3351 36.9774 12.8008C35.575 13.5723 34.1963 14.3308 32.8569 15.0678C33.1582 15.8689 33.4623 16.6414 33.7346 17.4252C33.8051 17.6276 33.8896 17.6826 34.0908 17.6809C35.5239 17.6729 36.957 17.6772 38.3906 17.6761C38.4777 17.6766 38.5644 17.6686 38.6833 17.6626ZM8.7095 30.3186C8.7095 29.5181 8.7095 28.7439 8.7095 27.9725C7.13168 27.9725 5.57699 27.9725 4.01639 27.9725C4.01639 28.7617 4.01639 29.531 4.01639 30.3186C5.58238 30.3186 7.1376 30.3186 8.7095 30.3186ZM38.9831 27.9719C37.4031 27.9719 35.85 27.9719 34.2673 27.9719C34.2673 28.6783 34.2765 29.3663 34.2625 30.0537C34.2576 30.2804 34.3303 30.3412 34.5509 30.3396C35.9662 30.331 37.381 30.3358 38.7963 30.3347C38.856 30.3347 38.9152 30.3213 38.9831 30.3127C38.9831 29.5283 38.9831 28.7595 38.9831 27.9719ZM4.01908 31.9142C4.01908 32.7094 4.01908 33.4771 4.01908 34.2813C4.1364 34.2813 4.2408 34.2813 4.34573 34.2813C5.18792 34.2813 6.02957 34.2813 6.87176 34.2813C7.41797 34.2813 7.96472 34.2862 8.51093 34.2727C8.58573 34.2711 8.72134 34.1796 8.72242 34.1274C8.73641 33.3952 8.7321 32.6631 8.7321 31.9142C7.14836 31.9142 5.59475 31.9142 4.01908 31.9142ZM38.9804 31.9159C37.4036 31.9159 35.8505 31.9159 34.2673 31.9159C34.2673 32.6222 34.2759 33.3096 34.2625 33.9966C34.2582 34.2162 34.3158 34.2878 34.5439 34.2862C35.9232 34.276 37.3019 34.2808 38.6812 34.2808C38.7769 34.2808 38.8722 34.2808 38.9804 34.2808C38.9804 33.4776 38.9804 32.7105 38.9804 31.9159ZM4.02662 39.7892C4.02662 40.5924 4.02662 41.3665 4.02662 42.138C5.60067 42.138 7.15428 42.138 8.71112 42.138C8.71112 41.3455 8.71112 40.5719 8.71112 39.7892C7.14083 39.7892 5.59314 39.7892 4.02662 39.7892ZM34.2824 39.7919C34.2824 40.5924 34.2824 41.3595 34.2824 42.1363C35.8581 42.1363 37.4181 42.1363 38.9712 42.1363C38.9712 41.3407 38.9712 40.5665 38.9712 39.7919C37.4009 39.7919 35.8527 39.7919 34.2824 39.7919ZM4.01693 38.1994C5.59906 38.1994 7.15105 38.1994 8.71004 38.1994C8.71004 37.4059 8.71004 36.6328 8.71004 35.8598C7.13329 35.8598 5.58022 35.8598 4.01693 35.8598C4.01693 36.6463 4.01693 37.4134 4.01693 38.1994ZM34.2894 35.8501C34.2894 36.6522 34.2894 37.4253 34.2894 38.2016C35.8645 38.2016 37.4176 38.2016 38.9744 38.2016C38.9744 37.4081 38.9744 36.6345 38.9744 35.8501C37.4079 35.8501 35.8608 35.8501 34.2894 35.8501ZM4.01801 45.9085C5.59798 45.9085 7.15105 45.9085 8.71165 45.9085C8.71165 45.1705 8.71165 44.4512 8.71165 43.7325C7.13652 43.7325 5.58291 43.7325 4.01801 43.7325C4.01801 44.4625 4.01801 45.1758 4.01801 45.9085ZM34.291 43.7282C34.291 44.4706 34.291 45.1898 34.291 45.9048C35.8694 45.9048 37.4246 45.9048 38.9777 45.9048C38.9777 45.1688 38.9777 44.4545 38.9777 43.7282C37.4128 43.7282 35.8645 43.7282 34.291 43.7282ZM8.71704 24.3984C7.13222 24.3984 5.57861 24.3984 4.02393 24.3984C4.02393 25.0697 4.02393 25.7195 4.02393 26.3768C5.59422 26.3768 7.14782 26.3768 8.71704 26.3768C8.71704 25.7114 8.71704 25.0622 8.71704 24.3984ZM38.9825 24.4011C37.4025 24.4011 35.8479 24.4011 34.2867 24.4011C34.2867 25.0697 34.2867 25.719 34.2867 26.3731C35.8618 26.3731 37.4171 26.3731 38.9825 26.3731C38.9825 25.7098 38.9825 25.0665 38.9825 24.4011Z" fill="black"></path><path d="M45.9765 24C50.6591 24 55.3411 24 60.0238 24C60.527 24.1506 60.8207 24.4927 60.9883 24.9786C61.2123 25.6275 61.4664 26.2658 61.7049 26.9097C61.7721 27.0907 61.8367 27.2531 62.0124 27.3819C62.1429 27.4777 62.2176 27.6699 62.2785 27.8329C62.3513 28.027 62.3795 28.2379 62.4341 28.4395C62.4994 28.679 62.5019 28.9086 62.3801 29.135C62.3525 29.1867 62.3513 29.2626 62.3613 29.3235C62.473 30.001 62.5947 30.6767 62.7039 31.3548C62.9286 32.7471 63.0045 34.1525 62.9995 35.5579C62.992 37.5567 62.8125 39.5432 62.3902 41.5035C62.3638 41.6267 62.3506 41.7766 62.3958 41.8874C62.5527 42.2675 62.3431 43.3382 62.0344 43.6169C62.0124 43.6368 61.9829 43.6511 61.9653 43.6741C61.8913 43.7705 61.794 43.8595 61.752 43.969C61.4696 44.7 61.2073 45.4391 60.923 46.1695C60.694 46.758 60.3143 47 59.6711 47C55.2238 47 50.7765 47 46.3292 47C45.686 47 45.3057 46.758 45.0773 46.1695C44.7911 45.4316 44.5244 44.6869 44.2433 43.9472C44.2106 43.862 44.1598 43.7687 44.0895 43.7152C43.7475 43.4533 43.4174 42.4218 43.5568 42.0137C43.5687 41.9782 43.5913 41.9458 43.5982 41.9098C43.6139 41.827 43.6446 41.7393 43.6321 41.6597C43.5247 40.989 43.4049 40.3202 43.2963 39.6502C43.0723 38.2653 42.9964 36.8674 43.0001 35.4695C43.0058 33.4632 43.184 31.4686 43.612 29.5021C43.6484 29.3341 43.6521 29.1804 43.5731 29.0094C43.4281 28.6952 43.703 27.6233 43.9615 27.3869C43.9835 27.3663 44.0123 27.352 44.0305 27.329C44.1052 27.2332 44.2044 27.1448 44.2464 27.036C44.51 26.3535 44.7723 25.6704 45.0114 24.9792C45.1802 24.4927 45.4726 24.1499 45.9765 24ZM51.1329 29.5326C50.9359 33.5229 50.9334 37.4902 51.1342 41.4618C52.3911 41.4618 53.6236 41.4618 54.868 41.4618C55.065 37.4777 55.0669 33.5098 54.8661 29.5326C53.6154 29.5326 52.388 29.5326 51.1329 29.5326ZM50.3692 29.5226C49.2666 29.5226 48.1955 29.5201 47.1243 29.5301C47.0734 29.5307 46.9856 29.6346 46.9793 29.6962C46.8481 31.1022 46.6994 32.507 46.6091 33.9154C46.5068 35.5075 46.5645 37.102 46.6975 38.6915C46.7684 39.5401 46.8839 40.3843 46.9649 41.2316C46.9824 41.4177 47.0301 41.4849 47.2316 41.4824C48.1898 41.4712 49.1487 41.4774 50.1075 41.4774C50.1885 41.4774 50.2694 41.4774 50.3686 41.4774C50.1715 37.4858 50.1715 33.5179 50.3692 29.5226ZM55.6311 29.5319C55.8306 33.5223 55.8275 37.4902 55.6323 41.4681C56.7625 41.4681 57.8694 41.4681 58.999 41.4681C59.5757 37.4877 59.5757 33.5148 58.999 29.5319C57.8713 29.5319 56.7644 29.5319 55.6311 29.5319ZM46.2281 41.4705C45.6653 37.4821 45.6671 33.5129 46.2281 29.5232C45.627 29.5232 45.0622 29.5189 44.4974 29.5307C44.4447 29.5319 44.36 29.6315 44.3487 29.6956C44.2301 30.3718 44.1171 31.0493 44.0155 31.728C43.8147 33.07 43.7551 34.4225 43.7657 35.7762C43.777 37.2127 43.8893 38.6436 44.1171 40.0633C44.1924 40.533 44.2885 40.9996 44.3757 41.4705C44.9938 41.4705 45.5881 41.4705 46.2281 41.4705ZM59.7671 29.5226C60.0633 31.5315 60.1951 33.5154 60.1957 35.5056C60.1963 37.4983 60.0583 39.4847 59.7715 41.4705C60.4122 41.4705 61.0065 41.4705 61.602 41.4705C61.6177 41.4382 61.6365 41.4127 61.6422 41.3847C61.9314 39.9619 62.1423 38.526 62.1881 37.0765C62.2258 35.882 62.1912 34.6844 62.153 33.4893C62.1115 32.2027 61.8982 30.9342 61.6484 29.6732C61.6371 29.6159 61.553 29.5307 61.5016 29.5301C60.9374 29.5189 60.3727 29.5226 59.7671 29.5226ZM44.2746 28.7537C50.1057 28.7537 55.9009 28.7537 61.7206 28.7537C61.6773 28.5664 61.6246 28.3959 61.6001 28.2211C61.5687 27.9959 61.4652 27.9281 61.228 27.9287C55.7402 27.9368 50.2525 27.9349 44.7647 27.9349C44.7045 27.9349 44.6405 27.9231 44.5846 27.9399C44.5351 27.9549 44.4686 27.9934 44.456 28.0351C44.3901 28.2622 44.338 28.4949 44.2746 28.7537ZM61.7244 42.2463C55.8959 42.2463 50.1006 42.2463 44.2803 42.2463C44.3211 42.4255 44.3719 42.5891 44.392 42.7565C44.4221 43.0028 44.5388 43.0725 44.7924 43.0719C50.265 43.0638 55.7377 43.0657 61.2104 43.0657C61.2707 43.0657 61.3365 43.0806 61.3899 43.0613C61.4508 43.0395 61.533 42.9966 61.548 42.9456C61.6164 42.726 61.6635 42.4995 61.7244 42.2463ZM51.5145 24.7696C51.4373 25.5727 51.3613 26.3641 51.2854 27.161C52.4382 27.161 53.5721 27.161 54.7161 27.161C54.6377 26.351 54.5611 25.559 54.4846 24.7696C53.4818 24.7696 52.5041 24.7696 51.5145 24.7696ZM54.4858 46.2311C54.563 45.4285 54.6389 44.6365 54.7155 43.839C53.5633 43.839 52.4294 43.839 51.2848 43.839C51.3632 44.6484 51.4398 45.4403 51.5163 46.2311C52.5172 46.2311 53.4949 46.2311 54.4858 46.2311ZM50.5161 27.1679C50.5926 26.3684 50.6685 25.5765 50.7451 24.7764C50.6911 24.7671 50.6629 24.7584 50.634 24.7584C49.8415 24.7571 49.0483 24.7602 48.2557 24.754C48.1151 24.7528 48.0812 24.8212 48.0505 24.9344C47.8742 25.5902 47.6915 26.2434 47.5121 26.8985C47.4895 26.9818 47.4757 27.0677 47.455 27.1679C48.4866 27.1679 49.4882 27.1679 50.5161 27.1679ZM55.483 27.1598C56.5127 27.1598 57.518 27.1598 58.539 27.1598C58.529 27.0889 58.5277 27.0372 58.5139 26.9881C58.3263 26.305 58.1318 25.6231 57.9517 24.9375C57.9127 24.7907 57.8462 24.7528 57.7025 24.754C56.9476 24.7602 56.1927 24.7565 55.4378 24.7577C55.3813 24.7577 55.3242 24.7696 55.2545 24.777C55.3311 25.5765 55.4058 26.3566 55.483 27.1598ZM47.4719 43.8352C47.4719 43.8844 47.4638 43.923 47.4732 43.9566C47.669 44.6764 47.8622 45.3974 48.0706 46.1135C48.0875 46.1726 48.2099 46.2367 48.2846 46.2379C48.9259 46.2478 49.5679 46.2435 50.2098 46.2435C50.3811 46.2435 50.5518 46.2435 50.7476 46.2435C50.6685 45.421 50.592 44.6291 50.5154 43.8352C49.4831 43.8352 48.4829 43.8352 47.4719 43.8352ZM55.2526 46.2435C56.1212 46.2435 56.9507 46.2466 57.7797 46.236C57.8356 46.2354 57.9209 46.1396 57.9397 46.0737C58.1387 45.3856 58.3275 44.695 58.5158 44.0038C58.5296 43.9522 58.5177 43.8931 58.5177 43.8377C57.503 43.8377 56.5027 43.8377 55.4836 43.8377C55.407 44.6378 55.3311 45.4242 55.2526 46.2435ZM47.2893 24.7571C46.9423 24.7571 46.6109 24.764 46.2802 24.7553C46.0342 24.749 45.8843 24.8585 45.7958 25.0781C45.6703 25.3898 45.5316 25.6965 45.413 26.0107C45.2718 26.3852 45.1457 26.7654 45.0057 27.1648C45.5717 27.1648 46.1045 27.1648 46.6473 27.1648C46.8569 26.3759 47.0678 25.5846 47.2893 24.7571ZM61.0309 27.1772C60.726 26.4095 60.4499 25.694 60.1518 24.9879C60.1104 24.8903 59.9667 24.7801 59.8637 24.7733C59.4841 24.7478 59.1019 24.7633 58.7204 24.7633C58.9206 25.5423 59.1132 26.3 59.3134 27.0559C59.3266 27.1044 59.3987 27.1716 59.4439 27.1722C59.9491 27.1803 60.453 27.1772 61.0309 27.1772ZM47.2811 46.2422C47.0797 45.4602 46.8845 44.6963 46.6825 43.9335C46.6712 43.89 46.6065 43.829 46.5658 43.8284C46.0562 43.8209 45.5466 43.8234 45.0421 43.8234C45.0333 43.8664 45.0245 43.8831 45.0289 43.8943C45.2938 44.5917 45.5573 45.2898 45.8278 45.9847C45.893 46.152 46.0273 46.2423 46.215 46.2416C46.562 46.2423 46.9084 46.2422 47.2811 46.2422ZM60.9983 43.8234C60.453 43.8234 59.9434 43.8197 59.4339 43.8303C59.3887 43.8309 59.3222 43.9186 59.3052 43.9765C59.2393 44.2054 59.1942 44.4406 59.1327 44.6714C58.9952 45.189 58.8534 45.7047 58.7072 46.2435C59.0624 46.2435 59.4006 46.2385 59.7395 46.2454C59.966 46.2497 60.111 46.1458 60.1944 45.9467C60.3356 45.6089 60.4812 45.273 60.6105 44.9308C60.7448 44.5768 60.8615 44.2172 60.9983 43.8234Z" fill="black" stroke="black" stroke-width="0.6"></path></svg>