<svg xmlns="http://www.w3.org/2000/svg" width="71" height="38" viewBox="0 0 71 38" fill="none"><path d="M0 36.4626C0.466874 35.8525 1.12643 35.8096 1.8008 35.8786C2.45479 35.9458 2.88091 35.7294 3.30332 35.179C7.71453 29.4138 12.1739 23.684 16.5907 17.9207C17.6245 16.5736 18.8361 15.9094 20.5499 16.346C20.737 16.3945 21.0723 16.1612 21.2298 15.9691C23.138 13.635 25.0241 11.2823 26.9175 8.93514C28.9554 6.40703 30.9878 3.87332 33.0332 1.35268C34.4004 -0.332107 36.5199 -0.464576 38.065 1.07095C40.8274 3.81735 43.5693 6.58614 46.2965 9.368C46.6818 9.76167 46.9894 9.9016 47.4711 9.57136C47.773 9.36426 48.1269 9.23739 48.4585 9.07134C50.452 8.07689 52.0712 8.55826 53.2273 10.4949C55.2949 13.9615 57.3588 17.4281 59.4245 20.8947C62.2628 25.6561 65.1122 30.4119 67.9227 35.1883C68.2432 35.7312 68.5841 35.9533 69.1825 35.8786C69.4771 35.8413 69.7846 35.8637 70.0811 35.8973C70.6387 35.9607 70.9574 36.2947 70.9981 36.8544C71.0426 37.4571 70.7128 37.8209 70.1589 37.9645C69.9403 38.0205 69.6994 37.9907 69.4697 37.9907C46.8263 37.9907 24.1811 37.9888 1.53772 38C0.891136 38 0.352008 37.8992 0.00370535 37.3003C0 37.0205 0 36.7425 0 36.4626ZM65.8496 35.8693C65.6624 35.5353 65.5383 35.2984 65.4012 35.067C62.3517 29.9455 59.3022 24.8258 56.2509 19.7062C54.6242 16.9766 52.9994 14.247 51.3672 11.5211C50.9115 10.7599 50.3816 10.508 49.7091 10.8252C48.4604 11.411 47.0264 11.8513 47.0023 13.6443C47.0023 13.6891 46.9819 13.7357 46.9653 13.7787C46.7411 14.344 46.2298 14.6406 45.7073 14.5082C45.1719 14.372 44.8477 13.8869 44.9403 13.2786C44.9996 12.8924 45.0885 12.4969 45.2423 12.1405C45.4553 11.6498 45.3053 11.342 44.9496 10.9875C42.2724 8.31944 39.6157 5.62901 36.9516 2.94791C35.864 1.8527 35.3342 1.87509 34.3801 3.05798C31.5992 6.50778 28.8165 9.95571 26.0338 13.4055C24.9907 14.7003 23.9495 15.9952 22.8583 17.3516C23.9199 17.8143 24.9148 18.2285 25.8911 18.6856C26.2746 18.8647 26.5395 18.8386 26.8712 18.5513C28.2014 17.3982 29.5575 16.2751 30.91 15.1481C32.5126 13.8122 34.0818 13.8328 35.6417 15.2004C37.1924 16.5605 38.7413 17.9225 40.2938 19.2808C41.0312 19.9245 41.7722 20.5644 42.5837 21.2678C42.9431 20.0215 43.2618 18.8871 43.6008 17.7583C43.8213 17.027 44.3493 16.6781 44.9255 16.8478C45.5646 17.0344 45.837 17.5941 45.6276 18.3423C45.2534 19.6819 44.8458 21.0122 44.4994 22.3574C44.4419 22.5813 44.529 22.9619 44.692 23.1056C49.4201 27.2737 54.1666 31.4232 58.9132 35.5708C59.0632 35.7014 59.2596 35.8618 59.4356 35.8637C61.5347 35.8768 63.6282 35.8693 65.8496 35.8693ZM27.9439 20.3984C27.9809 20.529 27.9883 20.5775 28.0069 20.6185C30.2949 25.561 32.5885 30.5015 34.8599 35.4495C35.0526 35.8693 35.3323 35.8749 35.6899 35.8749C42.228 35.8712 48.7642 35.873 55.3023 35.8693C55.4727 35.8693 55.645 35.8376 55.9229 35.8096C55.6747 35.5764 55.5154 35.4178 55.3449 35.2685C50.4668 30.9941 45.5869 26.7196 40.7069 22.447C38.5282 20.5402 36.3439 18.639 34.1689 16.7266C33.6538 16.2732 33.0906 16.1202 32.5441 16.5624C30.9989 17.8162 29.4853 19.1091 27.9439 20.3984ZM13.9747 35.8245C20.2682 35.8245 26.4395 35.8245 32.646 35.8245C32.6126 35.6846 32.6052 35.5894 32.5681 35.5092C30.3764 30.7758 28.1847 26.0423 25.9726 21.3201C25.8596 21.0794 25.5854 20.863 25.3353 20.751C23.6494 20.001 21.9505 19.2789 20.2516 18.555C19.3549 18.1744 19.0121 18.2733 18.4082 19.0532C14.2508 24.4322 10.0952 29.8093 5.93967 35.1902C5.79516 35.3767 5.67103 35.5782 5.46909 35.8712C7.39958 35.8712 9.17444 35.8581 10.9493 35.8805C11.3736 35.8861 11.6089 35.748 11.8145 35.3693C12.8483 33.4513 13.9136 31.5482 14.9677 29.6414C15.5625 28.5648 16.1423 27.4827 16.7537 26.4173C17.0946 25.8222 17.6986 25.6468 18.2229 25.9341C18.7398 26.2158 18.8899 26.8241 18.5823 27.451C18.4397 27.742 18.2766 28.0238 18.1191 28.3074C16.7574 30.7832 15.392 33.2591 13.9747 35.8245Z" fill="black"></path></svg>