<svg xmlns="http://www.w3.org/2000/svg" width="44" height="53" viewBox="0 0 44 53" fill="none"><path d="M43.771 37.484c-.521-.784-1.257-1.226-2.184-1.312a3.74 3.74 0 0 0-.164-.01l.05-.022c.556-.249 1.133-.506 1.714-.688.428-.135.678-.343.742-.618.06-.257-.052-.525-.332-.796-.437-.422-.964-.9-1.57-1.253-1.367-.798-2.93-1.154-5.066-1.154-.164.001-.336.003-.51.007-.524.012-1.056.054-1.569.094l-.197.017.015-.056c.125-.182.25-.37.357-.567.653-1.188 1.014-2.54 1.135-4.253.011-.155.011-.155.161-.176 1.462-.213 2.549-.652 3.422-1.382 1.1-.92 1.58-2.113 1.425-3.548-.06-.57-.39-.773-.675-.773-.185.001-.379.077-.576.226a1.374 1.374 0 0 1-.138.091 3.476 3.476 0 0 0-.253-1.558c-.18-.436-.48-.67-.97-.76a3.873 3.873 0 0 0-.688-.064c-.345 0-.662.05-.944.151l-.41-.505c-.412-.511-.8-.994-1.216-1.467-.219-.25-.435-.302-.577-.302-.17 0-.423.073-.654.422l-.036.054c-.17.253-.346.518-.477.806-.175.384-.33.78-.47 1.13-.035.092-.071.18-.105.267-.125.018-.249.035-.37.05-.383.052-.746.1-1.11.185-.659.153-1.033.607-1.025 1.245.004.392.028.795.073 1.197.006.056.018.11.034.162a1.453 1.453 0 0 1-.15-.059 1.04 1.04 0 0 0-.433-.106.62.62 0 0 0-.47.196c-.098.106-.21.305-.187.649.061.883.4 1.67 1.004 2.336.77.85 1.83 1.332 3.237 1.47.322.03.636.04.968.047l.2.005c-.064.765-.19 1.666-.504 2.559-.49-.708-1.302-1.1-2.386-1.151-2.068-.1-3.745-.97-4.95-2.665-1.164-1.635-2.316-3.281-3.407-4.966-1.56-2.414-2.095-5.062-1.245-7.834 1.028-3.354 2.214-6.658 3.33-9.984.305-.907.605-1.814.931-2.792-.386 0-.691.041-.98-.008-.643-.111-.882.188-1.076.773-1.192 3.62-2.452 7.216-3.644 10.835-1.174 3.565-.715 6.95 1.352 10.073 1.629 2.461 3.34 4.866 5 7.306.46.672 1.069.99 1.876.98.981-.014 1.964 0 2.946-.004.507-.002.82.251 1.001.712.173.444-.01.787-.311 1.083-.452.442-1.003.635-1.634.634-2.265-.006-4.529-.01-6.794.004a2.28 2.28 0 0 1-.358-.024h-.001c.357-1.024.322-2.001-.13-2.955-.462-.975-1.205-1.635-2.237-1.996.026-.367.025-.7.003-.999-.096-1.393-.893-2.66-2.133-3.292-1.248-.636-2.517-.414-4.203.627-.558-.472-1.142-.787-1.748-.927-1.712-1.01-3.427-2.02-5.133-3.043-1.286-.774-1.463-2.217-.454-3.33.376-.418.762-.827 1.127-1.255 1.923-2.267 3.851-4.525 4.79-7.44.368-1.144.84-2.255 1.261-3.381.533-1.423 1.064-2.847 1.634-4.374-.48 0-.844.039-1.196-.01-.5-.067-.686.166-.843.608-.529 1.494-1.102 2.97-1.66 4.454-.868 2.309-1.61 4.678-3.268 6.595-1.05 1.215-2.058 2.465-3.122 3.667-1.667 1.883-1.33 4.538.776 5.874.355.226.716.44 1.077.657.797.478 1.595.953 2.394 1.43-1.581.894-2.108 2.333-1.834 4.06l-1.569.915c-1.424-1.186-3.004-1.406-4.602-.324-1.592 1.078-1.986 2.626-1.428 4.437-1.437.36-1.64.714-1.253 2.135.025.096.048.194.074.292 1.507 6.06 3.016 12.12 4.526 18.179h2.35l-.005-.02h2.982l.004.019h23.592c.661-2.656 1.324-5.31 1.984-7.965.909-3.658 1.824-7.314 2.704-10.978.07-.29-.02-.625-.093-.944.553.062 1.082.16 1.594.3.77.208 1.416.512 1.963.923a.41.41 0 0 0-.035.015c-.29.13-.565.249-.836.395-.86.457-1.302 1.085-1.354 1.915a.29.29 0 0 1-.092.145c-.576.47-.919 1.113-1.019 1.913-.224 1.802.923 3.747 2.668 4.524.164.073.319.11.462.11a.663.663 0 0 0 .625-.398c.066-.145.228-.643-.49-1.002-1.146-.574-1.758-1.44-1.869-2.645-.034-.38.024-.7.18-.983l.011.018c.528.896 1.15 1.33 1.9 1.33.38 0 .79-.108 1.255-.33.357-.17.607-.461.704-.816.093-.351.027-.72-.188-1.042zm-1.689.77c-.315 0-.6-.25-.777-.666.028-.002.056-.002.084-.002.446 0 .882.227 1.086.549a.768.768 0 0 1-.392.12zm.312.184-.027.01a.384.384 0 0 0 .028-.01zm-.145.04-.017.003c.006.001.01 0 .017-.001zm-.121.015-.027.002.026-.002zm-.737-1.149h.013-.014zm.126.005a.502.502 0 0 1 .042.004l-.042-.005zm.255.043.042.01a.222.222 0 0 0-.04-.01zm.144.04.02.007a.123.123 0 0 1-.02-.006zm.136.054.034.015c-.013-.004-.023-.01-.034-.015zm.221.12c.013.01.026.016.038.025l-.037-.025zm-.979.446a.204.204 0 0 0-.007-.012l.008.013zm-.237-.444-.015-.042.015.04zm.472 1.747zm-.335-.154zm-.174-.122a1.786 1.786 0 0 1 0 .001zm.362-.922a.512.512 0 0 0 .024.025l-.024-.025zm.12.116-.012-.011a.09.09 0 0 1 .012.01zm.234.146-.016-.009c.005.005.01.007.016.01zm-.108-.057-.026-.016.026.016zm.647 1.046a2.194 2.194 0 0 1 .001 0zm.621-.174a2.478 2.478 0 0 1-.184.067c.062-.02.123-.043.185-.067zm-.197.072zm-.237.066zm.047-.982a.024.024 0 0 0 .01-.005.036.036 0 0 0-.01.005zm.128-.074c.01-.006.02-.012.028-.019l-.027.018zm-.135-.533.018.02c-.006-.008-.011-.014-.018-.02zm.082.087.025.031a.662.662 0 0 1-.026-.031zm.072.095.023.035-.024-.035zm-1.166-1.56a1.823 1.823 0 0 0 0 0zm-.24-.43c-.09.041-.164.124-.249.224.086-.1.158-.183.25-.223.307-.136.614-.275.925-.406-.311.13-.618.27-.926.407zm-3.012-3.111c.03.002.06.006.09.01l-.09-.01zm-17.125-.55a1.5 1.5 0 0 1-.64.145c-.837.011-1.46-.585-1.477-1.412-.01-.43.185-.83.49-1.108.253-.23.583-.375.937-.382.784-.016 1.46.648 1.47 1.44.005.602-.3 1.088-.78 1.319zM31.8 23.434c.036-.011.07-.023.103-.035-.032.012-.067.023-.104.035zm.728-.294c.068-.242-.03-.504-.3-.8-.282-.31-.382-.693-.318-1.2a.137.137 0 0 1 .042-.052c.229-.106.443-.158.65-.158.2 0 .387.048.574.146.193.101.36.15.516.15.188 0 .624-.081.643-.833.015-.6.222-1.136.538-1.723.444.476.741.999.904 1.59.156.572.488.658.672.658.185 0 .382-.086.585-.255.07-.057.147-.122.223-.165.163-.093.466-.157.737-.157.187 0 .284.032.309.045.127.156.159.878-.028 1.239-.135.26-.292.638-.114.936.18.3.593.34.888.342h.03c.22 0 .438-.024.648-.049h.009c-.18 1.145-1.592 2.137-3.47 2.417l-.007-.195c-.01-.339-.02-.689-.055-1.034-.1-.977-.224-1.931-.33-2.736-.057-.421-.334-.694-.707-.694a.746.746 0 0 0-.115.008c-.31.046-.62.306-.565.892.11 1.158.216 2.336.319 3.475l.032.362.001.061a6.79 6.79 0 0 1-.492.02c-1.604 0-2.842-.607-3.313-1.604.016-.003.03-.005.046-.006.26-.038.527-.076.788-.154.377-.113.593-.284.66-.524zm-.488-2.35zm3.127.062.01.002a.465.465 0 0 0-.01-.002zm.264.087a.276.276 0 0 0-.043-.03c.015.01.03.018.043.03zm-.076-.047zm-.085-.028a.854.854 0 0 0-.055-.009c.018.002.036.004.054.008zm.364.471zm-.036-.15c-.009-.022-.016-.045-.027-.067.012.02.02.043.028.067zm-.045-.102a.5.5 0 0 0-.031-.05l.031.05zm.48 4.46c-.005-.122-.01-.247-.013-.37l.013.37zm3.044-2.884h-.027c.052 0 .103-.002.154-.004-.043.002-.085.004-.127.004zm.22-.007c.051-.003.103-.008.154-.013-.05.005-.102.01-.152.013zm-.875-2.475.015.008-.015-.008zm-.117-.045.025.007a.078.078 0 0 0-.025-.007zm.062.02.022.008a.16.16 0 0 0-.022-.007zm-.292-.052.016.002-.015-.001zm.083.008c.01 0 .018.002.028.003a.11.11 0 0 0-.028-.002zm.077.01c.01 0 .02.003.028.004-.008 0-.018-.002-.028-.004zm-.984.117.062-.025a.74.74 0 0 0-.061.025zm.1-.037.06-.02-.06.02zm.103-.03.062-.015a.95.95 0 0 0-.062.015zm.214-.043.07-.01-.07.01zm.11-.015.087-.007-.088.007zm.106-.008c.036-.003.07-.003.105-.003-.034 0-.069 0-.105.002zm-.745.186a.892.892 0 0 1 .083-.041c-.028.013-.057.026-.082.04zm-.602.376c.008 0 .014-.003.02-.005l-.02.004zm.215-.094.025-.016a.164.164 0 0 1-.025.016zm-.304.105-.015-.001h.02-.004zm-.208-.071.016.01a.102.102 0 0 1-.016-.01zm.123.06.024.004c-.009 0-.016-.003-.023-.005zm-.185-.122.01.014-.01-.014zm-1.346-3.489zm.053.015c.011.003.02.008.032.013a.528.528 0 0 0-.032-.012zm.106.054.032.024a.324.324 0 0 0-.033-.024zm-1.013 3.718.013-.019-.013.02zm.046-.08.007-.016-.007.016zm.037-.108c.002-.008.003-.017.006-.025l-.006.025zm-.287.323c.007 0 .013-.003.019-.004l-.02.006zm-.082.01-.012-.002h.015-.002zm-.3-.075c.011.005.02.009.032.012l-.032-.012zm.099.038.033.01-.034-.01zm.091.024c.011.002.022.003.031.006a.207.207 0 0 0-.028-.006zm-.458-.185zm-.508-.099zm.17.012zm-1.74 3.616zm.17.211zm-.003-.002zm2.48 1.11zm-.3-.04zm-.577-.127zm-.54-.195zm-.232-.11a3.056 3.056 0 0 1 .001 0zm-.241-.143a2.948 2.948 0 0 1-.001 0zm3.277.61zm-.37.03zm2.853 6.222.208.008-.208-.008zm-.487-.01h-.17.171zm4.835 1.122zm-.408-.219c-.068-.034-.137-.069-.206-.1.07.031.138.065.207.1zm-.649-.287a4.808 4.808 0 0 0 .001 0zm-.642-.217zm-.323-.086zm-.326-.075a5.2 5.2 0 0 0-.001 0zm-.33-.064-.218-.035.219.036zm-.33-.052zm-3.596-1.976zm.7-3.398a.578.578 0 0 0-.053.232 15.74 15.74 0 0 0 0 0 .6.6 0 0 1 .054-.232zm1.203-.335zm3.779-4.002zm-.045-.612a.325.325 0 0 0-.007-.032l.008.033zm-.068-.203-.01-.02a.15.15 0 0 1 .01.02zm-.056-.09-.013-.014a.17.17 0 0 1 .013.014zm-.055-.058a.132.132 0 0 0-.02-.016l.021.015zm-.064-.044-.02-.01c.007.002.014.006.02.01zm-.164-.043h-.023.022zm-.21.042-.018.008.018-.008zm-.1.048a.35.35 0 0 0-.027.016l.028-.017zm-1.301-1.97zm-.58-.156zm-.263-.024a3.377 3.377 0 0 0-.19-.005h.012c.057 0 .116 0 .177.005zm.205.018zm-.703-.004.056-.008-.057.008zm-2.432-1.923a.8.8 0 0 0-.053-.055l.053.055zm-.34-.215a2.936 2.936 0 0 0-.034-.003c.012 0 .023 0 .034.003zm-.057-.004h.006-.022.017zm-.053.004-.023.005a.077.077 0 0 1 .023-.005zm-.058.014c-.01.002-.016.006-.025.008l.024-.008zm-.057.021-.024.012.023-.012zm-.055.032-.023.015.023-.015zm-.11.091zm-3.412 5.49c-.205-.066-.366-.108-.51-.159.144.052.305.093.51.16zm-.735-.25-.028-.009.029.008zm-.082-.026a4.956 4.956 0 0 1-.033-.007l.033.007zm-.08-.016-.032-.002c.01 0 .021 0 .032.002zm-.074-.005c-.007-.001-.014-.001-.02 0l.013-.001.007-.001zm-.258.078-.015.012a.604.604 0 0 0 .016-.012zm.165-.071-.018.003c.006-.002.012-.002.02-.003zm-.095.029-.012.007c.004-.002.007-.006.012-.007zm-.236.402-.003.029a.234.234 0 0 0 .002-.03zm.097-.29c-.003.003-.004.006-.006.01a.11.11 0 0 1 .007-.01zm-.045.076-.01.02.01-.02zm-.037.109-.001.008v-.007zM16.39 26.526c-.01-.6.386-1.13.934-1.343.165-.065.344-.1.53-.1.798 0 1.473.662 1.465 1.44a1.438 1.438 0 0 1-1.226 1.425c-.079.014-.158.02-.239.02a1.448 1.448 0 0 1-1.466-1.442zm-2.266 0c-.008.823-.628 1.442-1.448 1.442-.82.001-1.44-.617-1.449-1.444a1.43 1.43 0 0 1 1.45-1.44 1.43 1.43 0 0 1 1.447 1.442zm-4.057 3.032c.783-.012 1.456.654 1.462 1.445.005.838-.59 1.45-1.422 1.458-.841.011-1.446-.575-1.457-1.415-.01-.806.627-1.475 1.417-1.487zm-5.133 0a1.452 1.452 0 0 1 1.416 1.489c-.012.83-.628 1.429-1.463 1.424-.815-.005-1.42-.635-1.41-1.47.008-.803.675-1.463 1.457-1.442zm-1.457 8.725c-.315-1.132-.594-2.275-.913-3.526 1.59 0 3.067-.006 4.542.01.11.002.298.154.315.258.188 1.141.345 2.288.527 3.537-.727 0-1.395.001-2.063 0-.66 0-1.32.017-1.978-.013-.152-.007-.394-.143-.43-.267zm3.047 12.353-2.44-9.782h4.208l1.466 9.782H6.524zm3.16-15.859h4.828l.207 3.74h-4.477c-.184-1.23-.366-2.452-.56-3.74zm2.366 15.84-1.468-9.81c1.36 0 2.641-.013 3.922.022.128.001.343.292.359.463.066.74.067 1.486.102 2.23.114 2.347.233 4.694.352 7.093H12.05zm3.2-18.156c-.837-.005-1.438-.613-1.433-1.452.005-.793.677-1.46 1.462-1.45.784.01 1.437.685 1.428 1.48-.008.833-.619 1.43-1.458 1.423zm5.624 18.17H17.59l-.484-9.787h4.25l-.482 9.788zm.605-12.127h-4.493l-.18-3.705h4.846l-.174 3.705zm4.934 12.116h-3.19c0-.654-.024-1.308.005-1.96.103-2.35.23-4.7.338-7.05.037-.804.023-.804.854-.806h3.457l-1.466 9.815zm-2.66-12.106.188-3.727h4.834l-.553 3.727h-4.47zm8.185 12.122h-3.236l1.467-9.79h4.209l-2.44 9.79zm3.363-13.462c-.356 1.39-.363 1.388-1.81 1.388h-2.976c.181-1.255.343-2.42.534-3.582.015-.092.23-.214.352-.216 1.456-.014 2.912-.008 4.47-.008-.199.847-.37 1.636-.57 2.418zm4.279-4.085zm-1.102-.196c.071.008.144.019.215.028l-.215-.028zm.736.117zm2.328 10.092c.035.005.07.009.102.009h-.005a.68.68 0 0 1-.096-.008zm-.266-.08zm.379.088zm.103-.014zm.17-.084zm.07-.079zm-2.048-2.476zm.637-1.816zm.155.188zm1.16.598c.05.003.1.003.15.002l-.056.002c-.033 0-.063-.001-.094-.004zm-.364-.064a1.404 1.404 0 0 0 .001 0zm.182.044zm1.221-.192z" fill="black"></path><path d="M16.592 8.7c.044-.164-.039-.363-.063-.544-.149.102-.35.172-.435.311a85.705 85.705 0 0 0-1.875 3.216c-.214.39-.307.85-.385 1.076.038 1.277.488 2.087 1.389 2.604.2.114.5.051.756.07-.025-.24.038-.554-.09-.712-.667-.828-.554-1.705-.278-2.622.34-1.13.668-2.264.98-3.4z" fill="black"></path></svg>