<svg xmlns="http://www.w3.org/2000/svg" width="49" height="47" viewBox="0 0 49 47" fill="none"><path d="M0 29.6873C0.149562 28.9154 0.271001 28.1359 0.455077 27.3716C1.02137 25.0228 2.1156 22.9347 3.6534 21.0679C3.78634 20.9064 3.87327 20.694 3.9359 20.4918C4.38075 19.0599 4.78853 17.6153 5.26023 16.1923C5.48393 15.517 6.00931 15.2856 6.55515 15.5056C7.1176 15.7319 7.27867 16.2559 7.03835 16.9349C6.64207 18.0489 6.27009 19.1718 5.8687 20.3469C6.5168 20.4906 7.07542 20.5834 7.61486 20.7398C13.9463 22.571 17.803 26.6925 19.1465 33.1221C19.5824 35.2052 19.3842 37.278 19.0314 39.3534C18.7336 41.1045 18.9534 42.8238 19.544 44.4973C19.5964 44.6461 19.6591 44.7923 19.7064 44.9437C19.9147 45.6049 19.6424 46.1073 18.9522 46.2624C16.4825 46.8169 14.0077 46.8105 11.5827 46.0882C5.35993 44.2354 1.60683 40.0897 0.235208 33.7898C0.138057 33.346 0.0779766 32.8945 0.00127831 32.4469C0 31.5275 0 30.6068 0 29.6873ZM17.5205 44.5278C16.866 42.4067 16.8199 40.2919 17.2405 38.158C17.5294 36.6956 17.5678 35.2115 17.2955 33.7593C16.2064 27.9617 12.7856 24.2318 7.09076 22.5837C6.62929 22.4502 6.14354 22.3993 5.62071 22.3014C5.62071 23.741 5.645 25.0839 5.61176 26.4268C5.59386 27.1618 5.90961 27.4988 6.60756 27.7086C7.63915 28.0189 8.63623 28.4449 9.64226 28.8366C10.0961 29.0133 10.3083 29.3631 10.2533 29.8514C10.2009 30.3232 9.9107 30.6068 9.4569 30.6678C9.23576 30.6983 8.98649 30.6271 8.76917 30.5495C7.93828 30.2558 7.11377 29.9417 6.22279 29.611C6.28543 29.8361 6.3225 29.9862 6.36852 30.1324C7.38221 33.3599 9.12327 36.1373 11.5687 38.4835C12.0621 38.9579 12.1171 39.5403 11.7285 39.9511C11.3207 40.3834 10.7084 40.3707 10.2213 39.8493C9.41855 38.9922 8.65157 38.1008 7.8718 37.2233C7.76315 37.1012 7.66344 36.9702 7.52155 36.7973C7.46019 37.0491 7.41928 37.2157 7.38094 37.3823C7.2237 38.0677 6.77758 38.4187 6.22535 38.2915C5.61815 38.1529 5.34843 37.6646 5.49416 36.9639C5.64116 36.2517 5.77283 35.5358 5.94284 34.8287C6.02593 34.4841 5.97096 34.2005 5.81245 33.8851C4.53543 31.3507 3.7889 28.6713 3.62911 25.8354C3.60993 25.5048 3.57159 25.1754 3.53451 24.7545C1.10062 29.2244 1.355 35.05 4.90741 39.5429C8.42403 43.9886 13.8888 45.2196 17.5205 44.5278Z" fill="black"></path><path d="M28.7852 44.2811C28.4924 42.9688 28.1128 41.7085 27.9415 40.4203C27.3765 36.1818 28.449 32.3439 31.0439 28.9485C32.9039 26.5158 35.3096 24.7914 38.2127 23.7804C40.2171 23.0822 41.8993 21.9403 43.253 20.31C43.8922 19.5419 44.4508 19.547 45.104 20.296C47.9482 23.554 49.2253 27.3564 48.9671 31.6445C48.5414 38.6921 43.1137 44.669 36.1137 45.8758C34.3075 46.1874 32.505 46.2103 30.6975 45.8911C30.4738 45.8517 30.2245 45.8873 29.9983 45.9394C28.5142 46.279 27.0352 46.6465 25.5485 46.9746C24.9528 47.1055 24.4428 46.7368 24.3405 46.1747C24.2497 45.68 24.5974 45.2171 25.174 45.0912C26.3053 44.8432 27.4391 44.6041 28.5717 44.3574C28.6765 44.3346 28.7749 44.285 28.7852 44.2811ZM36.7733 39.3012C36.8257 39.3381 36.8768 39.3763 36.9293 39.4132C37.0264 39.2695 37.1057 39.1118 37.222 38.9859C38.5553 37.5374 39.6955 35.9504 40.4766 34.1484C41.0275 32.8767 41.4289 31.5402 41.8865 30.2278C42.0898 29.6467 42.541 29.3656 43.0971 29.508C43.5931 29.6352 43.8794 30.149 43.7452 30.7072C43.6378 31.1523 43.5317 31.6 43.3847 32.0336C43.0881 32.9085 42.7647 33.7733 42.4387 34.6825C42.6522 34.6202 42.8325 34.5693 43.0114 34.5146C43.6429 34.3213 44.1683 34.5312 44.3562 35.0538C44.5518 35.5968 44.2616 36.1157 43.6225 36.3382C42.8721 36.5989 42.1128 36.8316 41.3688 37.1076C41.1643 37.1839 40.9457 37.334 40.8268 37.512C39.087 40.1329 36.8845 42.277 34.2039 43.9365C34.1247 43.9861 34.0556 44.0535 33.9393 44.1463C38.5131 44.0726 43.7899 41.2876 46.0998 35.5841C48.0965 30.6551 46.7786 25.2428 44.1453 22.2531C41.3893 24.5599 40.9482 24.8346 38.6511 25.6663C36.9062 26.2983 35.3557 27.2508 34.0211 28.5301C30.8816 31.5402 29.4946 35.2382 29.7669 39.548C29.8538 40.9252 30.1734 42.2643 30.7384 43.5626C32.1369 42.9624 33.4088 42.1969 34.6232 41.3232C34.9926 41.0574 35.0795 40.7955 35.0003 40.372C34.7906 39.2529 34.6142 38.1275 34.4404 37.0021C34.3292 36.2836 34.6347 35.8207 35.2444 35.7367C35.812 35.6592 36.2441 36.0496 36.3515 36.7261C36.4908 37.587 36.6327 38.4441 36.7733 39.3012Z" fill="black"></path><path d="M36.7026 11.3256C35.3629 10.3235 33.9619 9.55411 32.4612 8.97041C32.3231 8.917 32.0675 9.02891 31.9281 9.13955C30.9924 9.87966 30.0759 10.6427 29.1504 11.3942C28.5981 11.8431 28.0114 11.8241 27.6356 11.3535C27.2815 10.911 27.3965 10.3337 27.9232 9.9051C28.5994 9.35319 29.2756 8.80255 30.0528 8.16798C29.5812 8.05862 29.2143 7.95561 28.8397 7.88948C25.7501 7.33758 22.6936 7.45457 19.673 8.33712C18.8217 8.58636 18.1825 8.12475 18.2643 7.34902C18.3116 6.89757 18.5864 6.62162 19.0108 6.52879C20.1882 6.27191 21.3719 6.03665 22.553 5.79376C22.7179 5.75942 22.8841 5.73399 23.1232 5.69075C22.8931 5.47329 22.7167 5.31942 22.553 5.15156C22.1619 4.74971 22.1401 4.21815 22.4891 3.82647C22.8381 3.43606 23.3865 3.37121 23.8173 3.72219C24.3848 4.18254 24.9435 4.65942 25.4688 5.16682C25.8344 5.51907 26.2345 5.67168 26.7395 5.69838C29.3766 5.83827 31.877 6.52879 34.2661 7.63261C34.6944 7.83099 35.1098 8.0548 35.5317 8.26717C35.5623 8.2392 35.593 8.21122 35.6237 8.18324C35.1635 7.59573 34.7429 6.9726 34.238 6.42832C31.3094 3.27074 27.6752 1.79305 23.3596 1.95837C22.0609 2.00797 20.8056 2.26485 19.5759 2.66797C18.837 2.91086 18.295 2.72901 18.1045 2.17074C17.9051 1.58704 18.1991 1.10762 18.9316 0.857097C26.7587 -1.81724 35.5879 1.89987 38.7377 10.1505C38.8335 10.4023 39.0163 10.6363 39.203 10.8385C40.2051 11.9207 41.2393 12.9749 42.2262 14.0711C42.6736 14.5683 42.5917 15.1826 42.1226 15.5335C41.6867 15.8604 41.1243 15.7332 40.6999 15.2436C39.9111 14.3318 39.1084 13.4327 38.2672 12.479C38.0959 12.6748 37.986 12.7982 37.8774 12.9228C34.4566 16.8243 30.1564 18.7166 24.946 18.4559C21.3872 18.2778 18.2745 16.9527 15.5773 14.6523C14.0024 13.3081 12.1924 12.4828 10.1458 12.1623C9.26888 12.025 8.93524 11.4998 9.21008 10.677C9.71501 9.16371 10.427 7.75596 11.3615 6.46012C11.6286 6.08879 11.9814 5.90185 12.4327 6.01121C12.8379 6.10913 13.137 6.39653 13.1434 6.80729C13.1485 7.09723 13.0092 7.41388 12.8622 7.67839C12.3637 8.57365 11.8332 9.45238 11.3397 10.2942C12.4813 10.7673 13.564 11.1361 14.5675 11.6562C15.3792 12.0771 16.1423 12.6227 16.8441 13.2115C19.7484 15.6455 23.0874 16.8065 26.8635 16.5344C30.862 16.2457 34.1217 14.4692 36.7026 11.3256Z" fill="black"></path><path d="M16.1798 3.89518C16.1785 4.44836 15.7707 4.84767 15.2147 4.84131C14.6931 4.83495 14.2764 4.42802 14.2649 3.91299C14.2534 3.38397 14.6842 2.94524 15.221 2.94015C15.7707 2.93634 16.1811 3.34327 16.1798 3.89518Z" fill="black"></path></svg>