<?xml version="1.0" standalone="no"?>
<!DOCTYPE svg PUBLIC "-//W3C//DTD SVG 1.1//EN" "http://www.w3.org/Graphics/SVG/1.1/DTD/svg11.dtd" >
<svg xmlns="http://www.w3.org/2000/svg" xmlns:xlink="http://www.w3.org/1999/xlink" version="1.1">
<metadata>
Created by FontForge 20170731 at Tue May 28 15:57:55 2019
 By Aleksey,,,
(c) 2019 Sociedad Estatal Correos y Tele'grafos, S.A. S.M.E.
</metadata>
<defs>
<font id="Cartero-Light" horiz-adv-x="0" >
  <font-face 
    font-family="Cartero Light"
    font-weight="300"
    font-stretch="normal"
    units-per-em="1000"
    panose-1="2 11 3 4 2 2 3 2 2 4"
    ascent="764"
    descent="-236"
    x-height="518"
    cap-height="719"
    bbox="-175 -232 1007 950"
    underline-thickness="50"
    underline-position="-150"
    unicode-range="U+000D-FEFF"
  />
<missing-glyph horiz-adv-x="438" 
d="M438 0h-438v719h438v-719zM368 651h-298v-583h298v583z" />
    <glyph glyph-name="fi" unicode="fi" horiz-adv-x="564" 
d="M202 676q-17 -11 -23 -31.5t-6 -55.5v-71h135v-61h-135v-457h-72v457h-88v61h88v74q0 76 37.5 116.5t110.5 40.5q50 0 90 -19l-15 -57q-34 14 -72 14q-33 0 -50 -11zM408.5 658q-14.5 15 -14.5 41q0 24 15 39.5t39 15.5t39 -15.5t15 -39.5q0 -26 -14.5 -41t-39.5 -15
t-39.5 15zM483 518v-518h-72v518h72z" />
    <glyph glyph-name="fl" unicode="fl" horiz-adv-x="564" 
d="M202 676q-17 -11 -23 -31.5t-6 -55.5v-71h135v-61h-135v-457h-72v457h-88v61h88v74q0 76 37.5 116.5t110.5 40.5q50 0 90 -19l-15 -57q-34 14 -72 14q-33 0 -50 -11zM483 739v-739h-72v739h72z" />
    <glyph glyph-name=".notdef" horiz-adv-x="438" 
d="M438 0h-438v719h438v-719zM368 651h-298v-583h298v583z" />
    <glyph glyph-name=".null" 
 />
    <glyph glyph-name="nonmarkingreturn" horiz-adv-x="333" 
 />
    <glyph glyph-name="NULL" 
 />
    <glyph glyph-name="NULL" 
 />
    <glyph glyph-name="CR" unicode="&#xd;" horiz-adv-x="220" 
 />
    <glyph glyph-name="space" unicode=" " horiz-adv-x="220" 
 />
    <glyph glyph-name="exclam" unicode="!" horiz-adv-x="214" 
d="M149 719l-6 -535h-61l-7 535h74zM67.5 5q-14.5 15 -14.5 40t14.5 40.5t39.5 15.5t39.5 -15.5t14.5 -40.5t-14.5 -40t-39.5 -15t-39.5 15z" />
    <glyph glyph-name="quotedbl" unicode="&#x22;" horiz-adv-x="297" 
d="M262 719l-16 -234h-46l-16 234h78zM113 719l-16 -234h-46l-16 234h78z" />
    <glyph glyph-name="numbersign" unicode="#" horiz-adv-x="639" 
d="M486 433l-26 -147h112l-11 -59h-112l-41 -227h-69l41 227h-168l-41 -227h-70l41 227h-112l11 59h112l27 147h-112l10 59h113l41 227h70l-41 -227h167l41 227h69l-41 -227h112l-11 -59h-112zM417 433h-167l-27 -147h168z" />
    <glyph glyph-name="dollar" unicode="$" horiz-adv-x="551" 
d="M448 53q-52 -52 -149 -61v-123h-59v121q-58 3 -110 18.5t-87 38.5l17 65q43 -25 85 -38t95 -15v278q-59 20 -99.5 44.5t-64.5 62t-24 92.5q0 49 22 89.5t64.5 67.5t101.5 34v122h59v-120q56 -3 103.5 -19.5t83.5 -40.5l-16 -67q-39 26 -79.5 41t-91.5 17v-268
q73 -23 115 -46.5t64 -60t22 -94.5q0 -86 -52 -138zM137.5 483.5q11.5 -22.5 36 -39t66.5 -32.5v245q-56 -8 -85 -38.5t-29 -79.5q0 -33 11.5 -55.5zM391.5 98.5q31.5 30.5 31.5 87.5q0 36 -11.5 59t-38 39t-74.5 33v-256q61 7 92.5 37.5z" />
    <glyph glyph-name="percent" unicode="%" horiz-adv-x="721" 
d="M78 440q-35 44 -35 122q0 79 35 122.5t101 43.5t100.5 -43.5t34.5 -122.5t-35 -122.5t-100 -43.5q-66 0 -101 44zM547 719h65l-436 -719h-66zM239 473.5q20 27.5 20 80.5v17q0 107 -80 107t-80 -107v-17q0 -108 80 -108q40 0 60 27.5zM442 32q-35 44 -35 122
q0 79 35 122.5t100 43.5q66 0 101 -43.5t35 -122.5t-35.5 -122.5t-100.5 -43.5t-100 44zM622 146v17q0 107 -80 107q-40 0 -59.5 -26.5t-19.5 -80.5v-17q0 -108 79 -108q80 0 80 108z" />
    <glyph glyph-name="ampersand" unicode="&#x26;" horiz-adv-x="643" 
d="M576 0l-83 84q-43 -45 -99 -69.5t-124 -24.5t-119 24t-78.5 67t-27.5 99q0 68 40 116t123 79l-9 9q-43 44 -64 85.5t-21 88.5q0 48 24 87t67 61.5t99 22.5t98.5 -20.5t65.5 -57.5t23 -83q0 -66 -46.5 -117t-133.5 -85l178 -181q38 68 51 170l62 -29q-15 -108 -66 -189
l135 -137h-95zM208.5 485q17.5 -32 55.5 -71l16 -16q67 30 100.5 71.5t33.5 93.5v8q0 42 -30.5 66.5t-78.5 24.5q-32 0 -58 -12t-41 -34.5t-15 -51.5v-12q0 -35 17.5 -67zM448 130l-208 213q-55 -22 -86.5 -59t-31.5 -86v-12q0 -61 40.5 -94t111.5 -33q108 0 174 71z" />
    <glyph glyph-name="quotesingle" unicode="'" horiz-adv-x="148" 
d="M113 719l-16 -234h-46l-16 234h78z" />
    <glyph glyph-name="parenleft" unicode="(" horiz-adv-x="335" 
d="M119.5 2q-38.5 124 -38.5 276t38.5 276t107.5 234l54 -28q-60 -102 -91.5 -219.5t-31.5 -244.5v-36q0 -127 31.5 -244.5t91.5 -219.5l-54 -28q-69 110 -107.5 234z" />
    <glyph glyph-name="parenright" unicode=")" horiz-adv-x="335" 
d="M145.5 15.5q31.5 117.5 31.5 244.5v36q0 127 -31.5 244.5t-91.5 219.5l54 28q69 -110 107.5 -234t38.5 -276t-38.5 -276t-107.5 -234l-54 28q60 102 91.5 219.5z" />
    <glyph glyph-name="asterisk" unicode="*" horiz-adv-x="401" 
d="M242 541l85 -98l-59 -43l-67 111l-68 -111l-59 43l85 98l-126 29l22 70l121 -51l-12 130h73l-12 -130l121 51l22 -70z" />
    <glyph glyph-name="plus" unicode="+" horiz-adv-x="550" 
d="M505 332h-197v-197h-66v197h-197v66h197v197h66v-197h197v-66z" />
    <glyph glyph-name="comma" unicode="," horiz-adv-x="181" 
d="M146 103l-84 -234h-47l51 234h80z" />
    <glyph glyph-name="hyphen" unicode="-" horiz-adv-x="390" 
d="M345 273h-300v60h300v-60z" />
    <glyph glyph-name="period" unicode="." horiz-adv-x="214" 
d="M67.5 5q-14.5 15 -14.5 40t14.5 40.5t39.5 15.5t39.5 -15.5t14.5 -40.5t-14.5 -40t-39.5 -15t-39.5 15z" />
    <glyph glyph-name="slash" unicode="/" horiz-adv-x="370" 
d="M278 778h67l-268 -1000h-67z" />
    <glyph glyph-name="zero" unicode="0" horiz-adv-x="580" 
d="M156.5 32.5q-55.5 42.5 -84.5 125.5t-29 202t29 201.5t84.5 125t133.5 42.5t133.5 -42.5t84 -125t28.5 -201.5t-28.5 -202t-84 -125.5t-133.5 -42.5t-133.5 42.5zM460 340v40q0 281 -170 281t-170 -281v-40q0 -282 170 -282t170 282z" />
    <glyph glyph-name="one" unicode="1" horiz-adv-x="580" 
d="M495 68v-68h-410v68h194v577l-141 -109l-38 55l165 128h87v-651h143z" />
    <glyph glyph-name="two" unicode="2" horiz-adv-x="580" 
d="M513 68v-68h-448v73l189 198q57 60 90.5 102t50.5 81t17 79q0 39 -19 67.5t-54 44t-82 15.5q-48 0 -90 -14.5t-85 -41.5l-16 64q38 27 87.5 44t109.5 17q67 0 118 -23.5t78.5 -67.5t27.5 -102q0 -46 -17.5 -90t-52.5 -89.5t-92 -105.5l-175 -183h363z" />
    <glyph glyph-name="three" unicode="3" horiz-adv-x="580" 
d="M472 326q38 -49 38 -124q0 -66 -29 -114t-83 -73t-128 -25q-63 0 -117.5 17t-96.5 44l19 63q44 -27 91.5 -42t103.5 -15q83 0 123 34.5t40 104.5v13q0 62 -37 96t-123 34h-86v63h82q75 0 111 35t36 95v13q0 59 -37 88t-113 29q-87 0 -165 -44l-18 61q36 23 83.5 36.5
t100.5 13.5q73 0 123.5 -23t76 -63.5t25.5 -93.5q0 -59 -34 -100t-97 -57q73 -17 111 -66z" />
    <glyph glyph-name="four" unicode="4" horiz-adv-x="580" 
d="M554 186h-98v-186h-73v186h-342v73l314 460h101v-465h98v-68zM383 254v387l-263 -387h263z" />
    <glyph glyph-name="five" unicode="5" horiz-adv-x="580" 
d="M412.5 432q48.5 -23 79 -73.5t30.5 -130.5q0 -74 -30.5 -127.5t-85.5 -82t-128 -28.5q-66 0 -122 17t-98 44l19 64q46 -27 94 -42.5t107 -15.5q80 0 123.5 42t43.5 118v19q0 84 -43.5 119t-115.5 35q-52 0 -88 -14t-68 -46l-52 16l23 373h392v-68h-330l-20 -281
q47 85 163 85q58 0 106.5 -23z" />
    <glyph glyph-name="six" unicode="6" horiz-adv-x="580" 
d="M421 433q48 -26 76.5 -77t28.5 -123q0 -71 -26.5 -126t-78.5 -86t-125 -31q-115 0 -178.5 84t-63.5 261q0 129 33 217t96 132.5t151 44.5q44 0 84.5 -10.5t72.5 -29.5l-16 -64q-32 19 -66 28.5t-73 9.5q-109 0 -157 -80.5t-48 -236.5v-2q24 56 71 85.5t113 29.5
q58 0 106 -26zM450 240q0 80 -42 117.5t-108 37.5q-58 0 -103 -22.5t-66 -64.5v-15q0 -236 164 -236q76 0 115.5 42.5t39.5 120.5v20z" />
    <glyph glyph-name="seven" unicode="7" horiz-adv-x="580" 
d="M506 719v-73l-308 -646h-80l312 651h-373v68h449z" />
    <glyph glyph-name="eight" unicode="8" horiz-adv-x="580" 
d="M492.5 312q40.5 -46 40.5 -120q0 -63 -30 -108.5t-85 -69.5t-128 -24q-76 0 -131 24.5t-83.5 68.5t-28.5 103q0 69 43 112.5t116 60.5q-141 54 -141 181q0 54 26.5 96.5t77.5 67.5t121 25q67 0 118 -23t79 -64t28 -93q0 -64 -40.5 -106t-106.5 -60q84 -25 124.5 -71z
M156 478.5q15 -25.5 51 -45.5t100 -35q41 8 71 29t45.5 49.5t15.5 58.5v11q0 55 -38.5 86t-109.5 31q-75 0 -112.5 -32t-37.5 -86v-7q0 -34 15 -59.5zM457 196q-1 37 -16.5 62.5t-53 44.5t-105.5 34q-12 2 -16 4q-42 -5 -75 -25t-50.5 -50t-17.5 -65v-13q0 -64 42 -98
t125 -34t125 33.5t42 95.5v11z" />
    <glyph glyph-name="nine" unicode="9" horiz-adv-x="580" 
d="M462.5 645q63.5 -84 63.5 -261q0 -129 -33 -217t-96 -132.5t-151 -44.5q-44 0 -84 10t-72 29l15 65q32 -19 66 -28.5t73 -9.5q109 0 157 80.5t48 236.5v2q-24 -56 -71 -85.5t-113 -29.5q-58 0 -106 26t-76.5 77t-28.5 123q0 71 26.5 126t78.5 86t125 31q115 0 178.5 -84z
M383 346.5q45 22.5 66 64.5v15q0 236 -164 236q-76 0 -115.5 -42.5t-39.5 -120.5v-20q0 -80 42 -117.5t108 -37.5q58 0 103 22.5z" />
    <glyph glyph-name="colon" unicode=":" horiz-adv-x="214" 
d="M67.5 432q-14.5 15 -14.5 40t14.5 40.5t39.5 15.5t39.5 -15.5t14.5 -40.5t-14.5 -40t-39.5 -15t-39.5 15zM67.5 5q-14.5 15 -14.5 40t14.5 40.5t39.5 15.5t39.5 -15.5t14.5 -40.5t-14.5 -40t-39.5 -15t-39.5 15z" />
    <glyph glyph-name="semicolon" unicode=";" horiz-adv-x="214" 
d="M146 103l-84 -234h-47l51 234h80zM67.5 432q-14.5 15 -14.5 40t14.5 40.5t39.5 15.5t39.5 -15.5t14.5 -40.5t-14.5 -40t-39.5 -15t-39.5 15z" />
    <glyph glyph-name="less" unicode="&#x3c;" horiz-adv-x="550" 
d="M497 527l-359 -162l359 -162v-73l-444 204v62l444 204v-73z" />
    <glyph glyph-name="equal" unicode="=" horiz-adv-x="550" 
d="M505 287v-66h-460v66h460zM505 509v-66h-460v66h460z" />
    <glyph glyph-name="greater" unicode="&#x3e;" horiz-adv-x="550" 
d="M497 396v-62l-444 -204v73l359 162l-359 162v73z" />
    <glyph glyph-name="question" unicode="?" horiz-adv-x="486" 
d="M190.5 277.5q8.5 34.5 28.5 58t60 51.5q30 20 48.5 38.5t29.5 44.5t11 62q0 64 -37.5 95.5t-109.5 31.5q-48 0 -88.5 -13.5t-79.5 -39.5l-16 62q84 61 190 61q69 0 117.5 -24t73.5 -68t25 -104q0 -63 -27.5 -109t-85.5 -84q-37 -24 -55 -42t-25.5 -44t-7.5 -70h-60
q0 59 8.5 93.5zM167 5q-15 15 -15 40t15 40.5t40 15.5t39.5 -15.5t14.5 -40.5t-14.5 -40t-39.5 -15t-40 15z" />
    <glyph glyph-name="at" unicode="@" horiz-adv-x="877" 
d="M610 464v-265q0 -40 15 -57t47 -17q40 0 59.5 31.5t19.5 99.5v40q0 100 -36 170t-104.5 106.5t-164.5 36.5q-98 0 -170.5 -38t-111 -108.5t-38.5 -167.5v-44q0 -98 38 -168t110 -107t171 -37q122 0 212 54l16 -60q-46 -27 -105 -41.5t-123 -14.5q-118 0 -206.5 47.5
t-136.5 137t-48 210.5q0 122 48.5 212t137 138.5t205.5 48.5q116 0 201 -47t131 -133t46 -201q0 -111 -40.5 -166t-116.5 -55q-46 0 -79 22.5t-39 73.5q-17 -51 -49 -76t-81 -25q-51 0 -88.5 24.5t-58 70.5t-20.5 110t20.5 110t58.5 70t89 24q47 0 79 -25t49 -74v90h63z
M501.5 138q28.5 18 45.5 58v144q-16 41 -45 59t-69 18q-59 0 -88.5 -35.5t-29.5 -102.5v-21q0 -66 29.5 -102t88.5 -36q40 0 68.5 18z" />
    <glyph glyph-name="A" unicode="A" horiz-adv-x="617" 
d="M448 218h-279l-70 -218h-76l236 719h100l235 -719h-76zM427 283l-118 370l-119 -370h237z" />
    <glyph glyph-name="B" unicode="B" horiz-adv-x="632" 
d="M538.5 328q40.5 -48 40.5 -126q0 -63 -27.5 -108.5t-79.5 -69.5t-123 -24h-252v719h222q71 0 122 -20.5t78 -60t27 -93.5q0 -57 -32.5 -96.5t-92.5 -56.5q77 -16 117.5 -64zM169 654v-254h154q75 0 111 33.5t36 92.5v13q0 55 -37 85t-129 30h-135zM502 209q0 61 -37 95
t-121 34h-175v-273h165q85 0 126.5 30.5t41.5 100.5v13z" />
    <glyph glyph-name="C" unicode="C" horiz-adv-x="618" 
d="M198.5 33.5q-70.5 43.5 -107.5 127t-37 202.5q0 118 37 200t106.5 124t166.5 42q64 0 118 -19.5t92 -48.5l-21 -64q-44 30 -88 46.5t-98 16.5q-117 0 -177 -70.5t-60 -205.5v-43q0 -136 62.5 -209t178.5 -73q54 0 97.5 15t89.5 44l23 -61q-41 -30 -95.5 -48.5
t-117.5 -18.5q-99 0 -169.5 43.5z" />
    <glyph glyph-name="D" unicode="D" horiz-adv-x="695" 
d="M497.5 676q70.5 -43 107 -124t36.5 -192q0 -112 -36.5 -192.5t-107.5 -124t-171 -43.5h-229v719h229q101 0 171.5 -43zM505.5 138.5q59.5 70.5 59.5 202.5v38q0 131 -59.5 201.5t-177.5 70.5h-159v-583h159q118 0 177.5 70.5z" />
    <glyph glyph-name="E" unicode="E" horiz-adv-x="577" 
d="M520 68v-68h-423v719h413v-68h-341v-248h311v-65h-311v-270h351z" />
    <glyph glyph-name="F" unicode="F" horiz-adv-x="538" 
d="M169 651v-260h297v-65h-297v-326h-72v719h399v-68h-327z" />
    <glyph glyph-name="G" unicode="G" horiz-adv-x="690" 
d="M613 372v-372h-67v154q-19 -83 -75 -123.5t-134 -40.5q-85 0 -149 43t-99 126t-35 200q0 118 38 201t110 126t172 43q65 0 123.5 -20.5t100.5 -52.5l-21 -64q-45 32 -94.5 50t-106.5 18q-121 0 -183.5 -72.5t-62.5 -207.5v-42q0 -90 25.5 -152.5t74 -94.5t116.5 -32
q55 0 98.5 21t70 58.5t31.5 86.5v82h-172v65h239z" />
    <glyph glyph-name="H" unicode="H" horiz-adv-x="716" 
d="M619 719v-719h-72v335h-378v-335h-72v719h72v-318h378v318h72z" />
    <glyph glyph-name="I" unicode="I" horiz-adv-x="266" 
d="M169 719v-719h-72v719h72z" />
    <glyph glyph-name="J" unicode="J" horiz-adv-x="448" 
d="M364 719v-534q0 -62 -24.5 -106t-68 -66.5t-99.5 -22.5q-42 0 -82 12.5t-74 36.5l18 64q32 -23 66.5 -33.5t67.5 -10.5q59 0 91 31.5t32 94.5v534h73z" />
    <glyph glyph-name="K" unicode="K" horiz-adv-x="639" 
d="M268 355l-99 -111v-244h-72v719h72v-376l332 376h92l-277 -310l300 -409h-89z" />
    <glyph glyph-name="L" unicode="L" horiz-adv-x="528" 
d="M496 68v-68h-399v719h72v-651h327z" />
    <glyph glyph-name="M" unicode="M" horiz-adv-x="848" 
d="M751 719v-719h-72v636q-13 -47 -28 -83l-188 -449h-78l-188 449q-17 44 -28 81v-634h-72v719h107l220 -534l220 534h107z" />
    <glyph glyph-name="N" unicode="N" horiz-adv-x="726" 
d="M629 719v-719h-97l-319 550q-31 56 -44 89v-639h-72v719h97l319 -550q29 -51 44 -89v639h72z" />
    <glyph glyph-name="O" unicode="O" horiz-adv-x="715" 
d="M194 35q-68 45 -104 128t-36 197t36 197t104 127.5t163 44.5q96 0 164 -44.5t104 -127.5t36 -197t-36 -197.5t-104 -128t-164 -44.5q-95 0 -163 45zM481.5 92.5q51.5 33.5 77.5 96.5t26 152v38q0 89 -26 152t-77.5 96t-124.5 33t-124 -33t-77 -96t-26 -152v-38
q0 -89 26 -152.5t77 -96.5t124 -33t124.5 33.5z" />
    <glyph glyph-name="P" unicode="P" horiz-adv-x="619" 
d="M472 693.5q52 -25.5 79.5 -73t27.5 -113.5q0 -65 -27.5 -112.5t-79.5 -73t-123 -25.5h-180v-296h-72v719h252q71 0 123 -25.5zM502 514q0 67 -38 103.5t-130 36.5h-165v-293h165q85 0 126.5 33t41.5 107v13z" />
    <glyph glyph-name="Q" unicode="Q" horiz-adv-x="715" 
d="M686 11l-11 -65l-318 42q-81 11 -147 43t-111 110.5t-45 215.5q0 117 36.5 201t104.5 127.5t162 43.5q95 0 163.5 -44.5t104.5 -127t36 -193.5q0 -144 -58.5 -224.5t-164.5 -98.5zM156 188.5q26 -63.5 77 -96.5t124 -33t124.5 33.5t77.5 96.5t26 152v38q0 89 -26 152
t-77.5 96t-124.5 33t-124 -33t-77 -96t-26 -152v-38q0 -89 26 -152.5z" />
    <glyph glyph-name="R" unicode="R" horiz-adv-x="638" 
d="M601 0h-77l-26 82q-30 95 -54 143t-61.5 71t-101.5 23h-112v-319h-72v719h252q70 0 122 -24t80 -68.5t28 -105.5q0 -54 -22 -96t-63.5 -68t-97.5 -32q46 -12 77 -41t51 -70t40 -102zM334 381q81 0 124.5 32.5t43.5 99.5v14q0 60 -39 93.5t-129 33.5h-165v-273h165z" />
    <glyph glyph-name="S" unicode="S" horiz-adv-x="551" 
d="M139 5.5q-58 15.5 -96 41.5l17 65q47 -27 93.5 -40t107.5 -13q79 0 120.5 30.5t41.5 96.5q0 40 -15 64.5t-48 41.5t-99 38q-67 21 -111.5 45.5t-71 63.5t-26.5 97q0 54 27 98t78.5 69.5t122.5 25.5q62 0 114.5 -17t91.5 -43l-16 -67q-41 28 -85.5 43t-101.5 15
q-76 0 -116.5 -31.5t-40.5 -89.5q0 -39 17 -64t52.5 -43t99.5 -39q74 -23 117 -46.5t65.5 -60t22.5 -95.5q0 -62 -27.5 -107t-81.5 -69.5t-130 -24.5q-64 0 -122 15.5z" />
    <glyph glyph-name="T" unicode="T" horiz-adv-x="610" 
d="M577 651h-236v-651h-72v651h-236v68h544v-68z" />
    <glyph glyph-name="U" unicode="U" horiz-adv-x="683" 
d="M148 65q-64 75 -64 216v438h72v-446q0 -107 45 -160.5t141 -53.5q95 0 139.5 53.5t44.5 160.5v446h73v-438q0 -140 -64.5 -215.5t-192.5 -75.5q-130 0 -194 75z" />
    <glyph glyph-name="V" unicode="V" horiz-adv-x="617" 
d="M594 719l-235 -719h-100l-236 719h76l210 -653l210 653h75z" />
    <glyph glyph-name="W" unicode="W" horiz-adv-x="915" 
d="M892 719l-178 -719h-102l-154 562l-155 -562h-102l-178 719h74l158 -654q9 48 27 118l126 452h99l126 -452q18 -65 27 -118l158 654h74z" />
    <glyph glyph-name="X" unicode="X" horiz-adv-x="597" 
d="M491 0l-194 305l-194 -305h-80l233 369l-228 351l83 -1l189 -297l189 297h80l-228 -360l233 -359h-83z" />
    <glyph glyph-name="Y" unicode="Y" horiz-adv-x="597" 
d="M335 308v-308h-73v308l-239 411h80l196 -341l196 341h79z" />
    <glyph glyph-name="Z" unicode="Z" horiz-adv-x="568" 
d="M525 68v-68h-482v73l393 578h-383v68h462v-73l-392 -578h402z" />
    <glyph glyph-name="bracketleft" unicode="[" horiz-adv-x="411" 
d="M170 712v-868h159v-66h-232v1000h232v-66h-159z" />
    <glyph glyph-name="backslash" unicode="\" horiz-adv-x="370" 
d="M92 778l268 -1000h-67l-268 1000h67z" />
    <glyph glyph-name="bracketright" unicode="]" horiz-adv-x="411" 
d="M314 -222h-232v66h159v868h-159v66h232v-1000z" />
    <glyph glyph-name="asciicircum" unicode="^" horiz-adv-x="417" 
d="M306 438l-97 225l-98 -225h-76l126 281h94l127 -281h-76z" />
    <glyph glyph-name="underscore" unicode="_" horiz-adv-x="500" 
d="M501 -212h-502v54h502v-54z" />
    <glyph glyph-name="grave" unicode="`" horiz-adv-x="336" 
d="M81 733l52 46l125 -168l-28 -25z" />
    <glyph glyph-name="a" unicode="a" horiz-adv-x="509" 
d="M363.5 502q42.5 -26 59.5 -72t17 -111v-319h-72v100q-40 -110 -169 -110q-48 0 -83.5 18.5t-54 51.5t-18.5 77q0 76 50.5 114t136.5 42l138 7v15q0 53 -10.5 85t-38 47.5t-76.5 15.5q-47 0 -88 -12t-80 -35l-14 59q37 24 85.5 38.5t100.5 14.5q74 0 116.5 -26zM307.5 69
q42.5 22 60.5 69v109l-128 -7q-42 -3 -70 -12t-44 -30t-16 -57q0 -44 25.5 -69t77.5 -25t94.5 22z" />
    <glyph glyph-name="b" unicode="b" horiz-adv-x="587" 
d="M438.5 496q49.5 -32 76.5 -92.5t27 -144.5t-27 -145t-76 -92.5t-116 -31.5q-64 0 -107 32.5t-64 92.5v-115h-72v739h72v-336q21 60 64 92.5t107 32.5q66 0 115.5 -32zM467 273q0 95 -40.5 144t-117.5 49q-56 0 -96 -23.5t-61 -78.5v-210q21 -55 61 -79t96 -24
q77 0 117.5 49.5t40.5 144.5v28z" />
    <glyph glyph-name="c" unicode="c" horiz-adv-x="478" 
d="M152.5 23.5q-53.5 33.5 -80.5 94t-27 141.5t27 141.5t80.5 94t129.5 33.5q51 0 92.5 -12.5t72.5 -32.5l-14 -62q-33 20 -68.5 31t-81.5 11q-79 0 -121 -48t-42 -142v-28q0 -94 42 -142.5t121 -48.5q46 0 81 11t69 31l14 -62q-31 -20 -72.5 -32t-92.5 -12
q-76 0 -129.5 33.5z" />
    <glyph glyph-name="d" unicode="d" horiz-adv-x="587" 
d="M506 739v-739h-72v112q-20 -58 -64 -90t-106 -32q-67 0 -116 31.5t-76 92.5t-27 145t27 144.5t76.5 92.5t115.5 32q62 0 106 -32t64 -90v333h72zM373 75q40 24 61 79v210q-21 55 -60.5 78.5t-95.5 23.5q-77 0 -117.5 -49t-40.5 -144v-28q0 -95 40.5 -144.5t117.5 -49.5
q55 0 95 24z" />
    <glyph glyph-name="e" unicode="e" horiz-adv-x="525" 
d="M480 245h-360q1 -99 39 -147t117 -48q51 0 96 12.5t79 32.5l14 -58q-32 -21 -82 -34t-104 -13q-117 0 -175.5 69t-58.5 200q0 80 26.5 140.5t77.5 94t124 33.5q104 0 155.5 -68.5t51.5 -185.5v-28zM164.5 423.5q-38.5 -42.5 -43.5 -122.5h293q-9 165 -142 165
q-69 0 -107.5 -42.5z" />
    <glyph glyph-name="f" unicode="f" horiz-adv-x="331" 
d="M202 676q-17 -11 -23 -31.5t-6 -55.5v-71h135v-61h-135v-457h-72v457h-88v61h88v74q0 76 37.5 116.5t110.5 40.5q50 0 90 -19l-15 -57q-34 14 -72 14q-33 0 -50 -11z" />
    <glyph glyph-name="g" unicode="g" horiz-adv-x="587" 
d="M506 518v-498q0 -242 -230 -242q-54 0 -102.5 12.5t-86.5 33.5l15 59q39 -21 84.5 -33t93.5 -12q77 0 115.5 40.5t38.5 128.5v118q-21 -58 -64.5 -89.5t-105.5 -31.5q-67 0 -116 31t-76 90t-27 141q0 81 27 140.5t76.5 90.5t115.5 31q62 0 106 -32t64 -90v112h72z
M373.5 88.5q39.5 23.5 60.5 78.5v197q-21 55 -60.5 78.5t-95.5 23.5q-77 0 -117.5 -47.5t-40.5 -138.5v-28q0 -91 40.5 -139t117.5 -48q56 0 95.5 23.5z" />
    <glyph glyph-name="h" unicode="h" horiz-adv-x="560" 
d="M449 479.5q42 -48.5 42 -136.5v-343h-72v340q0 65 -29 95.5t-86 30.5q-53 0 -92 -25t-60 -88v-353h-72v739h72v-341q23 66 64 98t104 32q87 0 129 -48.5z" />
    <glyph glyph-name="i" unicode="i" horiz-adv-x="233" 
d="M77.5 658q-14.5 15 -14.5 41q0 24 15 39.5t39 15.5t39 -15.5t15 -39.5q0 -26 -14.5 -41t-39.5 -15t-39.5 15zM152 518v-518h-72v518h72z" />
    <glyph glyph-name="j" unicode="j" horiz-adv-x="233" 
d="M77.5 658q-14.5 15 -14.5 41q0 24 15 39.5t39 15.5t39 -15.5t15 -39.5q0 -26 -14.5 -41t-39.5 -15t-39.5 15zM15 -161q35 0 50 18.5t15 60.5v600h72v-589q0 -79 -33.5 -115t-98.5 -36q-41 0 -73 15l12 57q27 -11 56 -11z" />
    <glyph glyph-name="k" unicode="k" horiz-adv-x="502" 
d="M237 248l-85 -98v-150h-72v739h72v-498l238 277h83l-190 -218l204 -300h-83z" />
    <glyph glyph-name="l" unicode="l" horiz-adv-x="233" 
d="M152 739v-739h-72v739h72z" />
    <glyph glyph-name="m" unicode="m" horiz-adv-x="884" 
d="M773 479q42 -49 42 -136v-343h-72v340q0 65 -28 95.5t-84 30.5q-52 0 -90 -25t-57 -88v-353h-72v340q0 65 -28.5 95.5t-83.5 30.5q-52 0 -90 -25t-58 -88v-353h-72v518h72v-120q45 130 164 130q70 0 111 -35t53 -99q22 67 63 100.5t104 33.5q84 0 126 -49z" />
    <glyph glyph-name="n" unicode="n" horiz-adv-x="560" 
d="M449 479.5q42 -48.5 42 -136.5v-343h-72v340q0 65 -29 95.5t-86 30.5q-53 0 -92 -25t-60 -88v-353h-72v518h72v-120q23 66 64 98t104 32q87 0 129 -48.5z" />
    <glyph glyph-name="o" unicode="o" horiz-adv-x="557" 
d="M151.5 23.5q-52.5 33.5 -79.5 94t-27 141.5q0 80 27 141t80 94.5t127 33.5t126.5 -33.5t79.5 -94t27 -141.5t-27 -141.5t-79.5 -94t-126.5 -33.5q-75 0 -127.5 33.5zM396.5 102q40.5 51 40.5 143v27q0 93 -40.5 143.5t-117.5 50.5t-118 -50.5t-41 -143.5v-27
q0 -92 41 -143t118 -51t117.5 51z" />
    <glyph glyph-name="p" unicode="p" horiz-adv-x="587" 
d="M438.5 496q49.5 -32 76.5 -92.5t27 -144.5t-27 -145t-76 -92.5t-116 -31.5q-64 0 -107 32.5t-64 92.5v-327h-72v730h72v-115q21 60 64 92.5t107 32.5q66 0 115.5 -32zM467 273q0 95 -40.5 144t-117.5 49q-56 0 -96 -23.5t-61 -78.5v-210q21 -55 61 -79t96 -24
q77 0 117.5 49.5t40.5 144.5v28z" />
    <glyph glyph-name="q" unicode="q" horiz-adv-x="587" 
d="M506 518v-730h-72v324q-20 -58 -64 -90t-106 -32q-67 0 -116 31.5t-76 92.5t-27 145t27 144.5t76.5 92.5t115.5 32q62 0 106 -32t64 -90v112h72zM373 75q40 24 61 79v210q-21 55 -60.5 78.5t-95.5 23.5q-77 0 -117.5 -49t-40.5 -144v-28q0 -95 40.5 -144.5t117.5 -49.5
q55 0 95 24z" />
    <glyph glyph-name="r" unicode="r" horiz-adv-x="363" 
d="M187.5 470q21.5 29 57 43.5t90.5 14.5v-70q-61 0 -95 -10t-53 -33t-35 -69v-346h-72v518h72v-123q14 46 35.5 75z" />
    <glyph glyph-name="s" unicode="s" horiz-adv-x="441" 
d="M112.5 2.5q-48.5 12.5 -76.5 31.5l15 58q38 -20 77 -29.5t84 -9.5q117 0 117 84q0 25 -10 41t-33.5 27.5t-65.5 22.5l-16 4q-54 14 -88.5 31t-54 45t-19.5 71q0 40 20 74t61.5 54.5t100.5 20.5q50 0 92 -12.5t74 -32.5l-16 -61q-32 21 -68 32t-82 11q-55 0 -84 -21.5
t-29 -60.5q0 -25 11.5 -41t36.5 -26.5t73 -22.5l16 -4q48 -12 80 -28t51.5 -45t19.5 -75t-21.5 -80t-63.5 -52.5t-102 -18.5q-51 0 -99.5 12.5z" />
    <glyph glyph-name="t" unicode="t" horiz-adv-x="356" 
d="M344 18q-47 -28 -112 -28q-68 0 -97.5 35t-29.5 102v330h-92v61h92v111h72v-111h150v-61h-150v-313q0 -39 5.5 -58t19.5 -27t44 -8q21 0 43.5 6t40.5 16z" />
    <glyph glyph-name="u" unicode="u" horiz-adv-x="553" 
d="M473 518v-518h-72v119q-22 -65 -62.5 -97t-102.5 -32q-84 0 -125.5 48.5t-41.5 135.5v344h72v-341q0 -66 27.5 -96t83.5 -30q52 0 90.5 24.5t58.5 88.5v354h72z" />
    <glyph glyph-name="v" unicode="v" horiz-adv-x="476" 
d="M461 518l-177 -518h-91l-178 518h75l150 -456l149 456h72z" />
    <glyph glyph-name="w" unicode="w" horiz-adv-x="776" 
d="M761 518l-156 -518h-90l-126 444l-126 -444h-92l-156 518h74l129 -449l125 449h92l126 -450l128 450h72z" />
    <glyph glyph-name="x" unicode="x" horiz-adv-x="484" 
d="M386 0l-147 209l-146 -209h-78l187 262l-180 256h83l142 -202l141 202h78l-181 -255l184 -263h-83z" />
    <glyph glyph-name="y" unicode="y" horiz-adv-x="476" 
d="M461 518l-200 -558q-25 -72 -46.5 -110t-48 -55t-67.5 -17q-39 0 -69 14l12 58q28 -11 55 -11q22 0 37.5 11t29 35.5t29.5 70.5l9 25l-187 537h75l147 -450l152 450h72z" />
    <glyph glyph-name="z" unicode="z" horiz-adv-x="489" 
d="M448 64v-64h-408v67l317 386h-307v65h388v-68l-316 -386h326z" />
    <glyph glyph-name="braceleft" unicode="{" horiz-adv-x="440" 
d="M222.5 330q-19.5 -37 -57.5 -52q38 -15 57.5 -52t19.5 -105v-181q0 -38 10 -59t28.5 -29t48.5 -8h29v-66h-34q-79 0 -117 44t-38 130v182q0 59 -19.5 85.5t-62.5 26.5h-10v64h10q43 0 62.5 26.5t19.5 85.5v182q0 86 38 130t117 44h34v-66h-29q-30 0 -48.5 -8t-28.5 -29
t-10 -59v-181q0 -68 -19.5 -105z" />
    <glyph glyph-name="bar" unicode="|" horiz-adv-x="267" 
d="M170 778v-1000h-73v1000h73z" />
    <glyph glyph-name="braceright" unicode="}" horiz-adv-x="440" 
d="M363 310v-64h-10q-43 0 -62.5 -26.5t-19.5 -85.5v-182q0 -86 -38 -130t-117 -44h-34v66h29q30 0 48.5 8t28.5 29t10 59v181q0 68 19.5 105t57.5 52q-38 15 -57.5 52t-19.5 105v181q0 38 -10 59t-28.5 29t-48.5 8h-29v66h34q79 0 117 -44t38 -130v-182q0 -59 19.5 -85.5
t62.5 -26.5h10z" />
    <glyph glyph-name="asciitilde" unicode="~" horiz-adv-x="568" 
d="M341 291q-21 8 -37.5 19t-38.5 29q-27 22 -45.5 32.5t-39.5 10.5q-27 0 -44.5 -19t-30.5 -62l-55 22q16 60 48.5 92t81.5 32q25 0 46 -8t37.5 -19t38.5 -29q28 -22 46 -32.5t39 -10.5q27 0 45 19t31 62l54 -22q-15 -60 -48 -92t-82 -32q-25 0 -46 8z" />
    <glyph glyph-name="uni00A0" unicode="&#xa0;" horiz-adv-x="220" 
 />
    <glyph glyph-name="exclamdown" unicode="&#xa1;" horiz-adv-x="214" 
d="M67.5 432q-14.5 15 -14.5 40q0 24 15 40t39 16t39 -16t15 -40q0 -25 -14.5 -40t-39.5 -15t-39.5 15zM143 333l6 -545h-74l7 545h61z" />
    <glyph glyph-name="cent" unicode="&#xa2;" horiz-adv-x="481" 
d="M447 34q-27 -17 -63.5 -29t-79.5 -14v-122h-59v123q-64 8 -109 43t-68 92.5t-23 131.5t23 131.5t68 92.5t109 43v122h59v-121q44 -2 80 -14t63 -30l-14 -62q-30 18 -60.5 28.5t-68.5 12.5v-407q38 2 68 12.5t61 28.5zM152 115.5q32 -47.5 93 -58.5v403q-61 -11 -93 -58
t-32 -129v-28q0 -82 32 -129.5z" />
    <glyph glyph-name="sterling" unicode="&#xa3;" horiz-adv-x="567" 
d="M525 69v-69h-467v74q50 26 79.5 73t29.5 109q0 37 -12 75h-112v57h89q-18 38 -27 69t-9 72q0 60 26.5 105t77.5 70t122 25q113 0 199 -61l-17 -68q-40 29 -81 44t-97 15q-76 0 -114.5 -33t-38.5 -97q0 -33 8 -59t18 -49.5t14 -32.5h250v-57h-231q9 -33 9 -74
q0 -58 -22.5 -105.5t-60.5 -82.5h367z" />
    <glyph glyph-name="currency" unicode="&#xa4;" horiz-adv-x="552" 
d="M468.5 300.5q-9.5 -32.5 -27.5 -58.5l79 -79l-42 -41l-77 77q-52 -41 -125 -41q-36 0 -68 10.5t-57 30.5l-77 -77l-41 41l78 79q-37 54 -37 126q0 35 9.5 67.5t27.5 58.5l-78 78l41 42l77 -77q25 20 57 30.5t68 10.5q73 0 125 -41l77 77l42 -42l-79 -79
q18 -25 27.5 -57.5t9.5 -67.5t-9.5 -67.5zM374 262.5q35 35.5 35 105.5t-35 105.5t-98 35.5t-98 -35.5t-35 -105.5t35 -105.5t98 -35.5t98 35.5z" />
    <glyph glyph-name="yen" unicode="&#xa5;" horiz-adv-x="597" 
d="M350 334h180v-52h-195v-87h195v-52h-195v-143h-73v143h-188v52h188v87h-188v52h173l-224 385h80l196 -341l196 341h79z" />
    <glyph glyph-name="brokenbar" unicode="&#xa6;" horiz-adv-x="267" 
d="M170 778v-413h-73v413h73zM170 191v-413h-73v413h73z" />
    <glyph glyph-name="section" unicode="&#xa7;" horiz-adv-x="542" 
d="M473 138.5q-18 -36.5 -50 -61.5q38 -41 38 -110q0 -58 -23 -100.5t-68.5 -65.5t-109.5 -23q-55 0 -110.5 15.5t-88.5 40.5l17 65q43 -26 86 -38.5t95 -12.5q61 0 93 27.5t32 85.5q0 36 -13 57.5t-43 37.5t-91 36q-63 21 -104 44.5t-65.5 61.5t-24.5 95q0 41 17 78t49 63
q-36 42 -36 108q0 50 23.5 91.5t68.5 65.5t107 24q56 0 104.5 -17t83.5 -43l-16 -68q-36 28 -77.5 43.5t-92.5 15.5q-61 0 -94 -28.5t-33 -79.5q0 -35 15.5 -57t44.5 -37t83 -33q71 -24 114 -48.5t65 -61t22 -91.5q0 -43 -18 -79.5zM131 238q14 -24 47 -42.5t95 -38.5
q59 -20 93 -38q48 32 48 95q0 35 -14.5 58.5t-48 42t-95.5 39.5q-26 9 -51.5 19t-43.5 20q-22 -16 -33 -40.5t-11 -54.5q0 -36 14 -60z" />
    <glyph glyph-name="dieresis" unicode="&#xa8;" horiz-adv-x="436" 
d="M93 635.5q-13 13.5 -13 36.5q0 22 13 36t35 14t35.5 -14t13.5 -36q0 -23 -13.5 -36.5t-35.5 -13.5t-35 13.5zM272.5 635.5q-13.5 13.5 -13.5 36.5q0 22 13.5 36t35.5 14t35 -14t13 -36q0 -23 -13 -36.5t-35 -13.5t-35.5 13.5z" />
    <glyph glyph-name="copyright" unicode="&#xa9;" horiz-adv-x="840" 
d="M228.5 29.5q-83.5 46.5 -129 131.5t-45.5 198t45.5 199t129.5 132.5t194 46.5q109 0 191 -46.5t127 -132t45 -199.5q0 -113 -45 -198t-127 -131.5t-191 -46.5q-111 0 -194.5 46.5zM583.5 79q67.5 37 103 105t35.5 160v33q0 92 -35.5 160t-103 104.5t-160.5 36.5
q-95 0 -163.5 -36.5t-105 -104.5t-36.5 -160v-33q0 -92 36.5 -160t105 -105t163.5 -37q93 0 160.5 37zM335 176.5q-39 24.5 -59.5 71t-20.5 111.5q0 64 20.5 110t59 70t91.5 24q34 0 63.5 -9t51.5 -23l-16 -54q-24 14 -47 22t-51 8q-53 0 -80.5 -34.5t-27.5 -101.5v-23
q0 -68 28.5 -104t82.5 -36q28 0 51.5 7t45.5 19l16 -51q-23 -15 -52.5 -23t-61.5 -8q-55 0 -94 24.5z" />
    <glyph glyph-name="ordfeminine" unicode="&#xaa;" horiz-adv-x="338" 
d="M307 714v-314h-60v71q-14 -39 -38.5 -58t-61.5 -19q-38 0 -66.5 19.5t-44 56t-15.5 86.5q0 51 15.5 88t44 56.5t66.5 19.5q37 0 61.5 -19t38.5 -58v71h60zM247 500v114q-22 57 -80 57q-41 0 -63 -28t-22 -78v-17q0 -50 22 -77.5t63 -27.5q59 0 80 57z" />
    <glyph glyph-name="guillemotleft" unicode="&#xab;" horiz-adv-x="431" 
d="M337 90l-122 214l122 214h79l-119 -214l119 -214h-79zM157 90l-122 214l122 214h79l-119 -214l119 -214h-79z" />
    <glyph glyph-name="logicalnot" unicode="&#xac;" horiz-adv-x="550" 
d="M505 247h-66v170h-394v66h460v-236z" />
    <glyph glyph-name="uni00AD" unicode="&#xad;" horiz-adv-x="390" 
d="M345 273h-300v60h300v-60z" />
    <glyph glyph-name="registered" unicode="&#xae;" horiz-adv-x="456" 
d="M326 704.5q43 -24.5 67 -67.5t24 -97t-24 -97t-67 -67.5t-98 -24.5t-98 24.5t-67 67.5t-24 97t24 97t67 67.5t98 24.5t98 -24.5zM303.5 408.5q32.5 17.5 50.5 51t18 80.5q0 46 -18 79.5t-50.5 51t-75.5 17.5t-75.5 -17.5t-50.5 -51t-18 -79.5q0 -47 18 -80.5t50.5 -51
t75.5 -17.5t75.5 17.5zM283.5 543.5q-9.5 -13.5 -26.5 -18.5l43 -74h-37l-40 69h-23v-69h-32v177h64q27 0 44 -15t17 -39q0 -17 -9.5 -30.5zM200 551h29q30 0 30 21v3q0 9 -5.5 15t-24.5 6h-29v-45z" />
    <glyph glyph-name="macron" unicode="&#xaf;" horiz-adv-x="427" 
d="M348 645h-268v55h268v-55z" />
    <glyph glyph-name="degree" unicode="&#xb0;" horiz-adv-x="343" 
d="M105 496.5q-29 16.5 -44.5 45t-15.5 63.5q0 34 15.5 62.5t44.5 45t67 16.5t66.5 -16.5t44 -45t15.5 -62.5q0 -35 -15.5 -63.5t-44 -45t-66.5 -16.5t-67 16.5zM233 542q22 23 22 63q0 39 -22 61.5t-61 22.5q-40 0 -62 -22.5t-22 -61.5q0 -40 22 -63t62 -23q39 0 61 23z
" />
    <glyph glyph-name="plusminus" unicode="&#xb1;" horiz-adv-x="550" 
d="M505 398v-66h-197v-172h-66v172h-197v66h197v172h66v-172h197zM45 63h460v-66h-460v66z" />
    <glyph glyph-name="twosuperior" unicode="&#xb2;" horiz-adv-x="320" 
d="M288 561v-51h-252v54l90 90q37 37 57 60t29 42t9 39q0 30 -21 47t-56 17q-48 0 -96 -30l-11 47q21 15 50.5 25t63.5 10q38 0 66.5 -14t44 -39t15.5 -59q0 -37 -23 -73.5t-74 -87.5l-74 -77h182z" />
    <glyph glyph-name="threesuperior" unicode="&#xb3;" horiz-adv-x="320" 
d="M289 620q0 -53 -35.5 -84t-103.5 -31q-36 0 -66.5 9t-52.5 24l12 42q51 -29 105 -29q85 0 85 67v8q0 32 -22 48t-61 16h-46v46h46q74 0 74 61v8q0 28 -19.5 43.5t-58.5 15.5q-47 0 -91 -23l-12 43q20 12 47 19.5t57 7.5q63 0 98 -28t35 -79q0 -31 -16.5 -54t-46.5 -35
q72 -22 72 -95z" />
    <glyph glyph-name="acute" unicode="&#xb4;" horiz-adv-x="336" 
d="M258 733l-149 -147l-29 25l125 168z" />
    <glyph glyph-name="mu" unicode="&#xb5;" horiz-adv-x="553" 
d="M484 518v-518h-72v118q-43 -128 -162 -128q-63 0 -98 35v-237h-72v730h72v-341q0 -66 27.5 -96t83.5 -30q53 0 91 25t58 89v353h72z" />
    <glyph glyph-name="paragraph" unicode="&#xb6;" horiz-adv-x="628" 
d="M141.5 301q-47.5 28 -72 78t-24.5 117t24.5 117t72 78t114.5 28h275v-931h-73v862h-109v-862h-73v485h-20q-67 0 -114.5 28z" />
    <glyph glyph-name="periodcentered" unicode="&#xb7;" horiz-adv-x="214" 
d="M67.5 292q-14.5 15 -14.5 40t14.5 40.5t39.5 15.5t39.5 -15.5t14.5 -40.5t-14.5 -40t-39.5 -15t-39.5 15z" />
    <glyph glyph-name="cedilla" unicode="&#xb8;" horiz-adv-x="260" 
d="M180 30l-35 -204h-65l60 204h40z" />
    <glyph glyph-name="onesuperior" unicode="&#xb9;" horiz-adv-x="320" 
d="M275 561v-51h-231v51h102v291l-70 -55l-28 39l90 69h63v-344h74z" />
    <glyph glyph-name="ordmasculine" unicode="&#xba;" horiz-adv-x="331" 
d="M86 415q-32 21 -48.5 57.5t-16.5 84.5t16.5 84.5t48.5 57.5t79 21t79.5 -21t49 -57.5t16.5 -84.5t-16.5 -84.5t-49 -57.5t-79.5 -21t-79 21zM227 470.5q22 27.5 22 77.5v17q0 50 -22 78t-62 28t-61.5 -28t-21.5 -78v-17q0 -50 21.5 -77.5t61.5 -27.5t62 27.5z" />
    <glyph glyph-name="guillemotright" unicode="&#xbb;" horiz-adv-x="431" 
d="M94 518l122 -214l-122 -214h-79l119 214l-119 214h79zM274 518l122 -214l-122 -214h-79l119 214l-119 214h79z" />
    <glyph glyph-name="onequarter" unicode="&#xbc;" horiz-adv-x="777" 
d="M275 375v-51h-231v51h102v291l-70 -55l-28 39l90 69h63v-344h74zM610 719h65l-436 -719h-66zM763 98h-48v-98h-53v98h-185v51l165 246h73v-248h48v-49zM662 147v197l-132 -197h132z" />
    <glyph glyph-name="onehalf" unicode="&#xbd;" horiz-adv-x="834" 
d="M275 375v-51h-231v51h102v291l-70 -55l-28 39l90 69h63v-344h74zM802 51v-51h-252v54l90 90q37 37 57 60t29 42t9 39q0 30 -21 47t-56 17q-48 0 -96 -30l-11 47q21 15 50.5 25t63.5 10q38 0 66.5 -14t44 -39t15.5 -59q0 -37 -23 -73.5t-74 -87.5l-74 -77h182zM610 719h65
l-436 -719h-66z" />
    <glyph glyph-name="threequarters" unicode="&#xbe;" horiz-adv-x="768" 
d="M601 719h65l-436 -719h-66zM754 98h-48v-98h-53v98h-185v51l165 246h73v-248h48v-49zM653 147v197l-132 -197h132zM289 435q0 -53 -35.5 -84t-103.5 -31q-36 0 -66.5 9t-52.5 24l12 42q51 -29 105 -29q85 0 85 67v8q0 32 -22 48t-61 16h-46v46h46q74 0 74 61v8
q0 28 -19.5 43.5t-58.5 15.5q-47 0 -91 -23l-12 43q20 12 47 19.5t57 7.5q63 0 98 -28t35 -79q0 -31 -16.5 -54t-46.5 -35q72 -22 72 -95z" />
    <glyph glyph-name="questiondown" unicode="&#xbf;" horiz-adv-x="486" 
d="M233 432q-15 15 -15 40q0 24 15.5 40t39.5 16t39 -16t15 -40q0 -25 -14.5 -40t-39.5 -15t-40 15zM141.5 -198q-48.5 24 -73.5 68t-25 104q0 66 28.5 114.5t86.5 86.5q37 25 55.5 44t26.5 44.5t8 69.5h60q0 -59 -8.5 -93.5t-29 -59t-62.5 -52.5q-31 -22 -49.5 -40.5
t-29.5 -45t-11 -65.5q0 -64 38 -96.5t109 -32.5q49 0 89.5 13.5t78.5 39.5l16 -63q-85 -60 -190 -60q-69 0 -117.5 24z" />
    <glyph glyph-name="Agrave" unicode="&#xc0;" horiz-adv-x="617" 
d="M448 218h-279l-70 -218h-76l236 719h100l235 -719h-76zM427 283l-118 370l-119 -370h237zM183 871l42 55l159 -137l-22 -30z" />
    <glyph glyph-name="Aacute" unicode="&#xc1;" horiz-adv-x="617" 
d="M448 218h-279l-70 -218h-76l236 719h100l235 -719h-76zM427 283l-118 370l-119 -370h237zM433 871l-178 -112l-22 30l159 137z" />
    <glyph glyph-name="Acircumflex" unicode="&#xc2;" horiz-adv-x="617" 
d="M448 218h-279l-70 -218h-76l236 719h100l235 -719h-76zM427 283l-118 370l-119 -370h237zM422 763l-115 115l-114 -115l-26 25l119 155h43l119 -155z" />
    <glyph glyph-name="Atilde" unicode="&#xc3;" horiz-adv-x="617" 
d="M448 218h-279l-70 -218h-76l236 719h100l235 -719h-76zM427 283l-118 370l-119 -370h237zM257.5 833.5q-10.5 3.5 -21.5 3.5q-19 0 -33.5 -12.5t-26.5 -42.5l-29 17q27 96 93 96q15 0 30 -5.5t35 -16.5l31 -16q16 -9 26.5 -12.5t21.5 -3.5q19 0 33.5 12.5t26.5 41.5
l29 -16q-27 -96 -93 -96q-15 0 -30.5 5.5t-34.5 15.5l-31 17q-16 9 -26.5 12.5z" />
    <glyph glyph-name="Adieresis" unicode="&#xc4;" horiz-adv-x="617" 
d="M448 218h-279l-70 -218h-76l236 719h100l235 -719h-76zM427 283l-118 370l-119 -370h237zM183.5 785.5q-13.5 13.5 -13.5 36.5q0 22 13.5 35.5t35.5 13.5t35 -13.5t13 -35.5q0 -23 -13 -36.5t-35 -13.5t-35.5 13.5zM363 785.5q-13 13.5 -13 36.5q0 22 13 35.5t35 13.5
t35.5 -13.5t13.5 -35.5q0 -23 -13.5 -36.5t-35.5 -13.5t-35 13.5z" />
    <glyph glyph-name="Aring" unicode="&#xc5;" horiz-adv-x="617" 
d="M448 218h-279l-70 -218h-76l236 719h100l235 -719h-76zM427 283l-118 370l-119 -370h237zM259 773.5q-22 12.5 -34 34.5t-12 48t12 47.5t34 34t50 12.5t50 -12.5t34 -34t12 -47.5t-12 -48t-34 -34.5t-50 -12.5t-50 12.5zM351 813q15 16 15 43t-15 42.5t-42 15.5
t-42 -15.5t-15 -42.5t15 -43t42 -16t42 16z" />
    <glyph glyph-name="AE" unicode="&#xc6;" horiz-adv-x="904" 
d="M846 68v-68h-423v218h-248l-76 -218h-76l255 719h558v-68h-341v-248h311v-65h-311v-270h351zM423 283v368h-96l-129 -368h225z" />
    <glyph glyph-name="Ccedilla" unicode="&#xc7;" horiz-adv-x="618" 
d="M490 9.5q-52 -18.5 -113 -19.5l-28 -164h-65l49 165q-88 8 -150.5 53.5t-95.5 126t-33 192.5q0 118 37 200t106.5 124t166.5 42q64 0 118 -19.5t92 -48.5l-21 -64q-44 30 -88 46.5t-98 16.5q-117 0 -177 -70.5t-60 -205.5v-43q0 -136 62.5 -209t178.5 -73q54 0 97.5 15
t89.5 44l23 -61q-39 -29 -91 -47.5z" />
    <glyph glyph-name="Egrave" unicode="&#xc8;" horiz-adv-x="577" 
d="M520 68v-68h-423v719h413v-68h-341v-248h311v-65h-311v-270h351zM180 871l42 55l159 -137l-22 -30z" />
    <glyph glyph-name="Eacute" unicode="&#xc9;" horiz-adv-x="577" 
d="M520 68v-68h-423v719h413v-68h-341v-248h311v-65h-311v-270h351zM430 871l-178 -112l-22 30l159 137z" />
    <glyph glyph-name="Ecircumflex" unicode="&#xca;" horiz-adv-x="577" 
d="M520 68v-68h-423v719h413v-68h-341v-248h311v-65h-311v-270h351zM418 763l-115 115l-114 -115l-26 25l119 155h43l119 -155z" />
    <glyph glyph-name="Edieresis" unicode="&#xcb;" horiz-adv-x="577" 
d="M520 68v-68h-423v719h413v-68h-341v-248h311v-65h-311v-270h351zM179.5 785.5q-13.5 13.5 -13.5 36.5q0 22 13.5 35.5t35.5 13.5t35 -13.5t13 -35.5q0 -23 -13 -36.5t-35 -13.5t-35.5 13.5zM359 785.5q-13 13.5 -13 36.5q0 22 13 35.5t35 13.5t35.5 -13.5t13.5 -35.5
q0 -23 -13.5 -36.5t-35.5 -13.5t-35 13.5z" />
    <glyph glyph-name="Igrave" unicode="&#xcc;" horiz-adv-x="266" 
d="M169 719v-719h-72v719h72zM7 871l42 55l159 -137l-22 -30z" />
    <glyph glyph-name="Iacute" unicode="&#xcd;" horiz-adv-x="266" 
d="M169 719v-719h-72v719h72zM257 871l-178 -112l-22 30l159 137z" />
    <glyph glyph-name="Icircumflex" unicode="&#xce;" horiz-adv-x="266" 
d="M169 719v-719h-72v719h72zM245 763l-115 115l-114 -115l-26 25l119 155h43l119 -155z" />
    <glyph glyph-name="Idieresis" unicode="&#xcf;" horiz-adv-x="266" 
d="M169 719v-719h-72v719h72zM6.5 785.5q-13.5 13.5 -13.5 36.5q0 22 13.5 35.5t35.5 13.5t35 -13.5t13 -35.5q0 -23 -13 -36.5t-35 -13.5t-35.5 13.5zM186 785.5q-13 13.5 -13 36.5q0 22 13 35.5t35 13.5t35.5 -13.5t13.5 -35.5q0 -23 -13.5 -36.5t-35.5 -13.5t-35 13.5z
" />
    <glyph glyph-name="Eth" unicode="&#xd0;" horiz-adv-x="695" 
d="M497.5 676q70.5 -43 107 -124t36.5 -192q0 -112 -36.5 -192.5t-107.5 -124t-171 -43.5h-229v335h-82v64h82v320h229q101 0 171.5 -43zM505.5 138.5q59.5 70.5 59.5 202.5v38q0 131 -59.5 201.5t-177.5 70.5h-159v-252h192v-64h-192v-267h159q118 0 177.5 70.5z" />
    <glyph glyph-name="Ntilde" unicode="&#xd1;" horiz-adv-x="726" 
d="M629 719v-719h-97l-319 550q-31 56 -44 89v-639h-72v719h97l319 -550q29 -51 44 -89v639h72zM311.5 833.5q-10.5 3.5 -21.5 3.5q-19 0 -33.5 -12.5t-26.5 -42.5l-29 17q27 96 93 96q15 0 30 -5.5t35 -16.5l31 -16q16 -9 26.5 -12.5t21.5 -3.5q19 0 33.5 12.5t26.5 41.5
l29 -16q-27 -96 -93 -96q-15 0 -30.5 5.5t-34.5 15.5l-31 17q-16 9 -26.5 12.5z" />
    <glyph glyph-name="Ograve" unicode="&#xd2;" horiz-adv-x="715" 
d="M194 35q-68 45 -104 128t-36 197t36 197t104 127.5t163 44.5q96 0 164 -44.5t104 -127.5t36 -197t-36 -197.5t-104 -128t-164 -44.5q-95 0 -163 45zM481.5 92.5q51.5 33.5 77.5 96.5t26 152v38q0 89 -26 152t-77.5 96t-124.5 33t-124 -33t-77 -96t-26 -152v-38
q0 -89 26 -152.5t77 -96.5t124 -33t124.5 33.5zM231 871l42 55l159 -137l-22 -30z" />
    <glyph glyph-name="Oacute" unicode="&#xd3;" horiz-adv-x="715" 
d="M194 35q-68 45 -104 128t-36 197t36 197t104 127.5t163 44.5q96 0 164 -44.5t104 -127.5t36 -197t-36 -197.5t-104 -128t-164 -44.5q-95 0 -163 45zM481.5 92.5q51.5 33.5 77.5 96.5t26 152v38q0 89 -26 152t-77.5 96t-124.5 33t-124 -33t-77 -96t-26 -152v-38
q0 -89 26 -152.5t77 -96.5t124 -33t124.5 33.5zM481 871l-178 -112l-22 30l159 137z" />
    <glyph glyph-name="Ocircumflex" unicode="&#xd4;" horiz-adv-x="715" 
d="M194 35q-68 45 -104 128t-36 197t36 197t104 127.5t163 44.5q96 0 164 -44.5t104 -127.5t36 -197t-36 -197.5t-104 -128t-164 -44.5q-95 0 -163 45zM481.5 92.5q51.5 33.5 77.5 96.5t26 152v38q0 89 -26 152t-77.5 96t-124.5 33t-124 -33t-77 -96t-26 -152v-38
q0 -89 26 -152.5t77 -96.5t124 -33t124.5 33.5zM469 763l-115 115l-114 -115l-26 25l119 155h43l119 -155z" />
    <glyph glyph-name="Otilde" unicode="&#xd5;" horiz-adv-x="715" 
d="M194 35q-68 45 -104 128t-36 197t36 197t104 127.5t163 44.5q96 0 164 -44.5t104 -127.5t36 -197t-36 -197.5t-104 -128t-164 -44.5q-95 0 -163 45zM481.5 92.5q51.5 33.5 77.5 96.5t26 152v38q0 89 -26 152t-77.5 96t-124.5 33t-124 -33t-77 -96t-26 -152v-38
q0 -89 26 -152.5t77 -96.5t124 -33t124.5 33.5zM304.5 833.5q-10.5 3.5 -21.5 3.5q-19 0 -33.5 -12.5t-26.5 -42.5l-29 17q27 96 93 96q15 0 30 -5.5t35 -16.5l31 -16q16 -9 26.5 -12.5t21.5 -3.5q19 0 33.5 12.5t26.5 41.5l29 -16q-27 -96 -93 -96q-15 0 -30.5 5.5
t-34.5 15.5l-31 17q-16 9 -26.5 12.5z" />
    <glyph glyph-name="Odieresis" unicode="&#xd6;" horiz-adv-x="715" 
d="M194 35q-68 45 -104 128t-36 197t36 197t104 127.5t163 44.5q96 0 164 -44.5t104 -127.5t36 -197t-36 -197.5t-104 -128t-164 -44.5q-95 0 -163 45zM481.5 92.5q51.5 33.5 77.5 96.5t26 152v38q0 89 -26 152t-77.5 96t-124.5 33t-124 -33t-77 -96t-26 -152v-38
q0 -89 26 -152.5t77 -96.5t124 -33t124.5 33.5zM230.5 785.5q-13.5 13.5 -13.5 36.5q0 22 13.5 35.5t35.5 13.5t35 -13.5t13 -35.5q0 -23 -13 -36.5t-35 -13.5t-35.5 13.5zM410 785.5q-13 13.5 -13 36.5q0 22 13 35.5t35 13.5t35.5 -13.5t13.5 -35.5q0 -23 -13.5 -36.5
t-35.5 -13.5t-35 13.5z" />
    <glyph glyph-name="multiply" unicode="&#xd7;" horiz-adv-x="550" 
d="M322 365l163 -152l-44 -47l-166 155l-166 -155l-44 47l163 152l-163 152l44 47l166 -155l166 155l44 -47z" />
    <glyph glyph-name="Oslash" unicode="&#xd8;" horiz-adv-x="715" 
d="M635 531.5q26 -75.5 26 -171.5q0 -114 -36 -197.5t-104 -128t-164 -44.5q-99 0 -171 50l-53 -87l-40 26l56 93q-47 48 -71 121t-24 167q0 114 36 197t104 127.5t163 44.5q96 0 164 -44l52 86l41 -27l-55 -90q50 -47 76 -122.5zM144.5 222.5q14.5 -52.5 42.5 -88.5
l297 491q-52 35 -127 35q-73 0 -124 -33t-77 -96t-26 -152v-38q0 -66 14.5 -118.5zM481.5 92.5q51.5 33.5 77.5 96.5t26 152v38q0 69 -16 123t-48 90l-299 -492q55 -41 135 -41q73 0 124.5 33.5z" />
    <glyph glyph-name="Ugrave" unicode="&#xd9;" horiz-adv-x="683" 
d="M148 65q-64 75 -64 216v438h72v-446q0 -107 45 -160.5t141 -53.5q95 0 139.5 53.5t44.5 160.5v446h73v-438q0 -140 -64.5 -215.5t-192.5 -75.5q-130 0 -194 75zM216 871l42 55l159 -137l-22 -30z" />
    <glyph glyph-name="Uacute" unicode="&#xda;" horiz-adv-x="683" 
d="M148 65q-64 75 -64 216v438h72v-446q0 -107 45 -160.5t141 -53.5q95 0 139.5 53.5t44.5 160.5v446h73v-438q0 -140 -64.5 -215.5t-192.5 -75.5q-130 0 -194 75zM466 871l-178 -112l-22 30l159 137z" />
    <glyph glyph-name="Ucircumflex" unicode="&#xdb;" horiz-adv-x="683" 
d="M148 65q-64 75 -64 216v438h72v-446q0 -107 45 -160.5t141 -53.5q95 0 139.5 53.5t44.5 160.5v446h73v-438q0 -140 -64.5 -215.5t-192.5 -75.5q-130 0 -194 75zM454 763l-115 115l-114 -115l-26 25l119 155h43l119 -155z" />
    <glyph glyph-name="Udieresis" unicode="&#xdc;" horiz-adv-x="683" 
d="M148 65q-64 75 -64 216v438h72v-446q0 -107 45 -160.5t141 -53.5q95 0 139.5 53.5t44.5 160.5v446h73v-438q0 -140 -64.5 -215.5t-192.5 -75.5q-130 0 -194 75zM215.5 785.5q-13.5 13.5 -13.5 36.5q0 22 13.5 35.5t35.5 13.5t35 -13.5t13 -35.5q0 -23 -13 -36.5
t-35 -13.5t-35.5 13.5zM395 785.5q-13 13.5 -13 36.5q0 22 13 35.5t35 13.5t35.5 -13.5t13.5 -35.5q0 -23 -13.5 -36.5t-35.5 -13.5t-35 13.5z" />
    <glyph glyph-name="Yacute" unicode="&#xdd;" horiz-adv-x="597" 
d="M335 308v-308h-73v308l-239 411h80l196 -341l196 341h79zM423 871l-178 -112l-22 30l159 137z" />
    <glyph glyph-name="Thorn" unicode="&#xde;" horiz-adv-x="627" 
d="M472 552.5q52 -25.5 79.5 -73t27.5 -112.5q0 -66 -27.5 -113.5t-79.5 -73t-123 -25.5h-180v-155h-72v719h72v-141h180q71 0 123 -25.5zM502 373q0 67 -38 103.5t-130 36.5h-165v-293h165q84 0 126 33t42 107v13z" />
    <glyph glyph-name="germandbls" unicode="&#xdf;" horiz-adv-x="565" 
d="M476.5 339q44.5 -52 44.5 -135q0 -66 -24.5 -114t-72.5 -74t-115 -26q-63 0 -115 19l12 62q46 -17 101 -17q68 0 103.5 36.5t35.5 109.5v13q0 71 -40.5 107.5t-118.5 36.5h-50v60h52q37 0 65 16t43.5 44.5t15.5 66.5v18q0 59 -33.5 92t-97.5 33q-67 0 -102.5 -38.5
t-35.5 -111.5v-537h-72v532q0 65 25 114t73 76t114 27q64 0 110 -24.5t69 -66t23 -92.5q0 -61 -35.5 -102.5t-98.5 -57.5q80 -15 124.5 -67z" />
    <glyph glyph-name="agrave" unicode="&#xe0;" horiz-adv-x="509" 
d="M363.5 502q42.5 -26 59.5 -72t17 -111v-319h-72v100q-40 -110 -169 -110q-48 0 -83.5 18.5t-54 51.5t-18.5 77q0 76 50.5 114t136.5 42l138 7v15q0 53 -10.5 85t-38 47.5t-76.5 15.5q-47 0 -88 -12t-80 -35l-14 59q37 24 85.5 38.5t100.5 14.5q74 0 116.5 -26zM307.5 69
q42.5 22 60.5 69v109l-128 -7q-42 -3 -70 -12t-44 -30t-16 -57q0 -44 25.5 -69t77.5 -25t94.5 22zM130 733l52 46l125 -168l-28 -25z" />
    <glyph glyph-name="aacute" unicode="&#xe1;" horiz-adv-x="509" 
d="M363.5 502q42.5 -26 59.5 -72t17 -111v-319h-72v100q-40 -110 -169 -110q-48 0 -83.5 18.5t-54 51.5t-18.5 77q0 76 50.5 114t136.5 42l138 7v15q0 53 -10.5 85t-38 47.5t-76.5 15.5q-47 0 -88 -12t-80 -35l-14 59q37 24 85.5 38.5t100.5 14.5q74 0 116.5 -26zM307.5 69
q42.5 22 60.5 69v109l-128 -7q-42 -3 -70 -12t-44 -30t-16 -57q0 -44 25.5 -69t77.5 -25t94.5 22zM368 733l-149 -147l-29 25l125 168z" />
    <glyph glyph-name="acircumflex" unicode="&#xe2;" horiz-adv-x="509" 
d="M363.5 502q42.5 -26 59.5 -72t17 -111v-319h-72v100q-40 -110 -169 -110q-48 0 -83.5 18.5t-54 51.5t-18.5 77q0 76 50.5 114t136.5 42l138 7v15q0 53 -10.5 85t-38 47.5t-76.5 15.5q-47 0 -88 -12t-80 -35l-14 59q37 24 85.5 38.5t100.5 14.5q74 0 116.5 -26zM307.5 69
q42.5 22 60.5 69v109l-128 -7q-42 -3 -70 -12t-44 -30t-16 -57q0 -44 25.5 -69t77.5 -25t94.5 22zM362 586l-114 114l-114 -114l-27 25l119 155h44l119 -155z" />
    <glyph glyph-name="atilde" unicode="&#xe3;" horiz-adv-x="509" 
d="M363.5 502q42.5 -26 59.5 -72t17 -111v-319h-72v100q-40 -110 -169 -110q-48 0 -83.5 18.5t-54 51.5t-18.5 77q0 76 50.5 114t136.5 42l138 7v15q0 53 -10.5 85t-38 47.5t-76.5 15.5q-47 0 -88 -12t-80 -35l-14 59q37 24 85.5 38.5t100.5 14.5q74 0 116.5 -26zM307.5 69
q42.5 22 60.5 69v109l-128 -7q-42 -3 -70 -12t-44 -30t-16 -57q0 -44 25.5 -69t77.5 -25t94.5 22zM196.5 665.5q-10.5 3.5 -21.5 3.5q-19 0 -33.5 -12.5t-26.5 -42.5l-29 17q27 96 93 96q15 0 30 -5.5t35 -16.5l31 -16q16 -9 26.5 -12.5t21.5 -3.5q19 0 33.5 12.5t26.5 41.5
l29 -16q-27 -96 -93 -96q-15 0 -30.5 5.5t-34.5 15.5l-31 17q-16 9 -26.5 12.5z" />
    <glyph glyph-name="adieresis" unicode="&#xe4;" horiz-adv-x="509" 
d="M363.5 502q42.5 -26 59.5 -72t17 -111v-319h-72v100q-40 -110 -169 -110q-48 0 -83.5 18.5t-54 51.5t-18.5 77q0 76 50.5 114t136.5 42l138 7v15q0 53 -10.5 85t-38 47.5t-76.5 15.5q-47 0 -88 -12t-80 -35l-14 59q37 24 85.5 38.5t100.5 14.5q74 0 116.5 -26zM307.5 69
q42.5 22 60.5 69v109l-128 -7q-42 -3 -70 -12t-44 -30t-16 -57q0 -44 25.5 -69t77.5 -25t94.5 22zM123 635.5q-13 13.5 -13 36.5q0 22 13 36t35 14t35.5 -14t13.5 -36q0 -23 -13.5 -36.5t-35.5 -13.5t-35 13.5zM302.5 635.5q-13.5 13.5 -13.5 36.5q0 22 13.5 36t35.5 14
t35 -14t13 -36q0 -23 -13 -36.5t-35 -13.5t-35.5 13.5z" />
    <glyph glyph-name="aring" unicode="&#xe5;" horiz-adv-x="509" 
d="M363.5 502q42.5 -26 59.5 -72t17 -111v-319h-72v100q-40 -110 -169 -110q-48 0 -83.5 18.5t-54 51.5t-18.5 77q0 76 50.5 114t136.5 42l138 7v15q0 53 -10.5 85t-38 47.5t-76.5 15.5q-47 0 -88 -12t-80 -35l-14 59q37 24 85.5 38.5t100.5 14.5q74 0 116.5 -26zM307.5 69
q42.5 22 60.5 69v109l-128 -7q-42 -3 -70 -12t-44 -30t-16 -57q0 -44 25.5 -69t77.5 -25t94.5 22zM199 593.5q-22 12.5 -34 34.5t-12 48t12 47.5t34 34t50 12.5t50 -12.5t34 -34t12 -47.5t-12 -48t-34 -34.5t-50 -12.5t-50 12.5zM291 633q15 16 15 43t-15 42.5t-42 15.5
t-42 -15.5t-15 -42.5t15 -43t42 -16t42 16z" />
    <glyph glyph-name="ae" unicode="&#xe6;" horiz-adv-x="824" 
d="M779 246h-352q1 -99 38.5 -147t113.5 -48q49 0 92.5 12t78.5 31l14 -57q-32 -21 -79.5 -34t-102.5 -13q-153 0 -201 132q-42 -132 -180 -132q-77 0 -117.5 39.5t-40.5 107.5q0 76 50.5 114t136.5 42l130 7v15q0 53 -10 85t-35.5 47.5t-71.5 15.5q-47 0 -88 -12t-80 -35
l-14 59q37 24 85.5 38.5t100.5 14.5q64 0 102 -23.5t56 -67.5q27 43 70.5 66.5t100.5 23.5q103 0 153 -68.5t50 -185.5v-27zM470.5 423.5q-37.5 -42.5 -42.5 -122.5h287q-4 84 -39 124.5t-101 40.5q-67 0 -104.5 -42.5zM311 75q43 28 58 88q-7 39 -9 84l-120 -7
q-42 -3 -70 -12t-44 -30t-16 -57q0 -44 25 -69t77 -25q56 0 99 28z" />
    <glyph glyph-name="ccedilla" unicode="&#xe7;" horiz-adv-x="478" 
d="M447 34q-61 -39 -144 -43l-28 -165h-65l48 165q-68 5 -116 39.5t-72.5 93t-24.5 135.5q0 81 27 141.5t80.5 94t129.5 33.5q51 0 92.5 -12.5t72.5 -32.5l-14 -62q-33 20 -68.5 31t-81.5 11q-79 0 -121 -48t-42 -142v-28q0 -94 42 -142.5t121 -48.5q46 0 81 11t69 31z" />
    <glyph glyph-name="egrave" unicode="&#xe8;" horiz-adv-x="525" 
d="M480 245h-360q1 -99 39 -147t117 -48q51 0 96 12.5t79 32.5l14 -58q-32 -21 -82 -34t-104 -13q-117 0 -175.5 69t-58.5 200q0 80 26.5 140.5t77.5 94t124 33.5q104 0 155.5 -68.5t51.5 -185.5v-28zM164.5 423.5q-38.5 -42.5 -43.5 -122.5h293q-9 165 -142 165
q-69 0 -107.5 -42.5zM154 733l52 46l125 -168l-28 -25z" />
    <glyph glyph-name="eacute" unicode="&#xe9;" horiz-adv-x="525" 
d="M480 245h-360q1 -99 39 -147t117 -48q51 0 96 12.5t79 32.5l14 -58q-32 -21 -82 -34t-104 -13q-117 0 -175.5 69t-58.5 200q0 80 26.5 140.5t77.5 94t124 33.5q104 0 155.5 -68.5t51.5 -185.5v-28zM164.5 423.5q-38.5 -42.5 -43.5 -122.5h293q-9 165 -142 165
q-69 0 -107.5 -42.5zM393 733l-149 -147l-29 25l125 168z" />
    <glyph glyph-name="ecircumflex" unicode="&#xea;" horiz-adv-x="525" 
d="M480 245h-360q1 -99 39 -147t117 -48q51 0 96 12.5t79 32.5l14 -58q-32 -21 -82 -34t-104 -13q-117 0 -175.5 69t-58.5 200q0 80 26.5 140.5t77.5 94t124 33.5q104 0 155.5 -68.5t51.5 -185.5v-28zM164.5 423.5q-38.5 -42.5 -43.5 -122.5h293q-9 165 -142 165
q-69 0 -107.5 -42.5zM387 586l-114 114l-114 -114l-27 25l119 155h44l119 -155z" />
    <glyph glyph-name="edieresis" unicode="&#xeb;" horiz-adv-x="525" 
d="M480 245h-360q1 -99 39 -147t117 -48q51 0 96 12.5t79 32.5l14 -58q-32 -21 -82 -34t-104 -13q-117 0 -175.5 69t-58.5 200q0 80 26.5 140.5t77.5 94t124 33.5q104 0 155.5 -68.5t51.5 -185.5v-28zM164.5 423.5q-38.5 -42.5 -43.5 -122.5h293q-9 165 -142 165
q-69 0 -107.5 -42.5zM148 635.5q-13 13.5 -13 36.5q0 22 13 36t35 14t35.5 -14t13.5 -36q0 -23 -13.5 -36.5t-35.5 -13.5t-35 13.5zM327.5 635.5q-13.5 13.5 -13.5 36.5q0 22 13.5 36t35.5 14t35 -14t13 -36q0 -23 -13 -36.5t-35 -13.5t-35.5 13.5z" />
    <glyph glyph-name="igrave" unicode="&#xec;" horiz-adv-x="233" 
d="M152 518v-518h-72v518h72zM1 735l53 44l120 -169l-29 -24z" />
    <glyph glyph-name="iacute" unicode="&#xed;" horiz-adv-x="233" 
d="M152 518v-518h-72v518h72zM232 735l-145 -149l-29 24l120 169z" />
    <glyph glyph-name="icircumflex" unicode="&#xee;" horiz-adv-x="233" 
d="M152 518v-518h-72v518h72zM218 586l-102 116l-102 -116l-28 23l104 157h52l104 -157z" />
    <glyph glyph-name="idieresis" unicode="&#xef;" horiz-adv-x="233" 
d="M152 518v-518h-72v518h72zM12 635.5q-13 13.5 -13 36.5q0 22 13 36t35 14t35 -14t13 -36q0 -23 -13 -36.5t-35 -13.5t-35 13.5zM152 635.5q-13 13.5 -13 36.5q0 22 13 36t35 14t35 -14t13 -36q0 -23 -13 -36.5t-35 -13.5t-35 13.5z" />
    <glyph glyph-name="eth" unicode="&#xf0;" horiz-adv-x="554" 
d="M434.5 585q37.5 -50 56 -121t18.5 -168q0 -156 -61.5 -231t-169.5 -75q-73 0 -125.5 32.5t-80 90t-27.5 132.5q0 76 27.5 133.5t78 89.5t116.5 32q61 0 104 -30.5t64 -87.5q-5 62 -20.5 107.5t-46 80t-79.5 60.5l-100 -84l-30 37l83 69q-44 18 -120 38l14 59
q95 -24 157 -54l84 70l29 -37l-68 -57q59 -36 96.5 -86zM437 314v25l-1 -3q-21 55 -61 79t-96 24q-77 0 -118 -47.5t-41 -133.5v-26q0 -86 41 -133.5t118 -47.5t117.5 50t40.5 145v68z" />
    <glyph glyph-name="ntilde" unicode="&#xf1;" horiz-adv-x="560" 
d="M449 479.5q42 -48.5 42 -136.5v-343h-72v340q0 65 -29 95.5t-86 30.5q-53 0 -92 -25t-60 -88v-353h-72v518h72v-120q23 66 64 98t104 32q87 0 129 -48.5zM227.5 665.5q-10.5 3.5 -21.5 3.5q-19 0 -33.5 -12.5t-26.5 -42.5l-29 17q27 96 93 96q15 0 30 -5.5t35 -16.5
l31 -16q16 -9 26.5 -12.5t21.5 -3.5q19 0 33.5 12.5t26.5 41.5l29 -16q-27 -96 -93 -96q-15 0 -30.5 5.5t-34.5 15.5l-31 17q-16 9 -26.5 12.5z" />
    <glyph glyph-name="ograve" unicode="&#xf2;" horiz-adv-x="557" 
d="M151.5 23.5q-52.5 33.5 -79.5 94t-27 141.5q0 80 27 141t80 94.5t127 33.5t126.5 -33.5t79.5 -94t27 -141.5t-27 -141.5t-79.5 -94t-126.5 -33.5q-75 0 -127.5 33.5zM396.5 102q40.5 51 40.5 143v27q0 93 -40.5 143.5t-117.5 50.5t-118 -50.5t-41 -143.5v-27
q0 -92 41 -143t118 -51t117.5 51zM159 733l52 46l125 -168l-28 -25z" />
    <glyph glyph-name="oacute" unicode="&#xf3;" horiz-adv-x="557" 
d="M151.5 23.5q-52.5 33.5 -79.5 94t-27 141.5q0 80 27 141t80 94.5t127 33.5t126.5 -33.5t79.5 -94t27 -141.5t-27 -141.5t-79.5 -94t-126.5 -33.5q-75 0 -127.5 33.5zM396.5 102q40.5 51 40.5 143v27q0 93 -40.5 143.5t-117.5 50.5t-118 -50.5t-41 -143.5v-27
q0 -92 41 -143t118 -51t117.5 51zM398 733l-149 -147l-29 25l125 168z" />
    <glyph glyph-name="ocircumflex" unicode="&#xf4;" horiz-adv-x="557" 
d="M151.5 23.5q-52.5 33.5 -79.5 94t-27 141.5q0 80 27 141t80 94.5t127 33.5t126.5 -33.5t79.5 -94t27 -141.5t-27 -141.5t-79.5 -94t-126.5 -33.5q-75 0 -127.5 33.5zM396.5 102q40.5 51 40.5 143v27q0 93 -40.5 143.5t-117.5 50.5t-118 -50.5t-41 -143.5v-27
q0 -92 41 -143t118 -51t117.5 51zM392 586l-114 114l-114 -114l-27 25l119 155h44l119 -155z" />
    <glyph glyph-name="otilde" unicode="&#xf5;" horiz-adv-x="557" 
d="M151.5 23.5q-52.5 33.5 -79.5 94t-27 141.5q0 80 27 141t80 94.5t127 33.5t126.5 -33.5t79.5 -94t27 -141.5t-27 -141.5t-79.5 -94t-126.5 -33.5q-75 0 -127.5 33.5zM396.5 102q40.5 51 40.5 143v27q0 93 -40.5 143.5t-117.5 50.5t-118 -50.5t-41 -143.5v-27
q0 -92 41 -143t118 -51t117.5 51zM226.5 665.5q-10.5 3.5 -21.5 3.5q-19 0 -33.5 -12.5t-26.5 -42.5l-29 17q27 96 93 96q15 0 30 -5.5t35 -16.5l31 -16q16 -9 26.5 -12.5t21.5 -3.5q19 0 33.5 12.5t26.5 41.5l29 -16q-27 -96 -93 -96q-15 0 -30.5 5.5t-34.5 15.5l-31 17
q-16 9 -26.5 12.5z" />
    <glyph glyph-name="odieresis" unicode="&#xf6;" horiz-adv-x="557" 
d="M151.5 23.5q-52.5 33.5 -79.5 94t-27 141.5q0 80 27 141t80 94.5t127 33.5t126.5 -33.5t79.5 -94t27 -141.5t-27 -141.5t-79.5 -94t-126.5 -33.5q-75 0 -127.5 33.5zM396.5 102q40.5 51 40.5 143v27q0 93 -40.5 143.5t-117.5 50.5t-118 -50.5t-41 -143.5v-27
q0 -92 41 -143t118 -51t117.5 51zM153 635.5q-13 13.5 -13 36.5q0 22 13 36t35 14t35.5 -14t13.5 -36q0 -23 -13.5 -36.5t-35.5 -13.5t-35 13.5zM332.5 635.5q-13.5 13.5 -13.5 36.5q0 22 13.5 36t35.5 14t35 -14t13 -36q0 -23 -13 -36.5t-35 -13.5t-35.5 13.5z" />
    <glyph glyph-name="divide" unicode="&#xf7;" horiz-adv-x="550" 
d="M237 514.5q-14 14.5 -14 38.5q0 25 14 39.5t38 14.5t38 -14.5t14 -39.5q0 -24 -14 -38.5t-38 -14.5t-38 14.5zM505 332h-460v66h460v-66zM237 137.5q-14 14.5 -14 38.5t14 39t38 15t38 -15t14 -39t-14 -38.5t-38 -14.5t-38 14.5z" />
    <glyph glyph-name="oslash" unicode="&#xf8;" horiz-adv-x="557" 
d="M493.5 378.5q18.5 -53.5 18.5 -119.5q0 -81 -27 -141.5t-79.5 -94t-126.5 -33.5q-75 0 -128 34l-45 -68l-35 24l46 71q-35 36 -53.5 89t-18.5 119q0 80 27 141t80 94.5t127 33.5q73 0 127 -34l44 68l35 -25l-45 -70q35 -35 53.5 -88.5zM155 109l215 331q-37 26 -91 26
q-77 0 -118 -50.5t-41 -143.5v-27q0 -86 35 -136zM437 272q0 88 -36 137l-215 -331q36 -27 93 -27q77 0 117.5 51t40.5 143v27z" />
    <glyph glyph-name="ugrave" unicode="&#xf9;" horiz-adv-x="553" 
d="M473 518v-518h-72v119q-22 -65 -62.5 -97t-102.5 -32q-84 0 -125.5 48.5t-41.5 135.5v344h72v-341q0 -66 27.5 -96t83.5 -30q52 0 90.5 24.5t58.5 88.5v354h72zM152 733l52 46l125 -168l-28 -25z" />
    <glyph glyph-name="uacute" unicode="&#xfa;" horiz-adv-x="553" 
d="M473 518v-518h-72v119q-22 -65 -62.5 -97t-102.5 -32q-84 0 -125.5 48.5t-41.5 135.5v344h72v-341q0 -66 27.5 -96t83.5 -30q52 0 90.5 24.5t58.5 88.5v354h72zM390 733l-149 -147l-29 25l125 168z" />
    <glyph glyph-name="ucircumflex" unicode="&#xfb;" horiz-adv-x="553" 
d="M473 518v-518h-72v119q-22 -65 -62.5 -97t-102.5 -32q-84 0 -125.5 48.5t-41.5 135.5v344h72v-341q0 -66 27.5 -96t83.5 -30q52 0 90.5 24.5t58.5 88.5v354h72zM385 586l-114 114l-114 -114l-27 25l119 155h44l119 -155z" />
    <glyph glyph-name="udieresis" unicode="&#xfc;" horiz-adv-x="553" 
d="M473 518v-518h-72v119q-22 -65 -62.5 -97t-102.5 -32q-84 0 -125.5 48.5t-41.5 135.5v344h72v-341q0 -66 27.5 -96t83.5 -30q52 0 90.5 24.5t58.5 88.5v354h72zM146 635.5q-13 13.5 -13 36.5q0 22 13 36t35 14t35.5 -14t13.5 -36q0 -23 -13.5 -36.5t-35.5 -13.5t-35 13.5
zM325.5 635.5q-13.5 13.5 -13.5 36.5q0 22 13.5 36t35.5 14t35 -14t13 -36q0 -23 -13 -36.5t-35 -13.5t-35.5 13.5z" />
    <glyph glyph-name="yacute" unicode="&#xfd;" horiz-adv-x="476" 
d="M461 518l-200 -558q-25 -72 -46.5 -110t-48 -55t-67.5 -17q-39 0 -69 14l12 58q28 -11 55 -11q22 0 37.5 11t29 35.5t29.5 70.5l9 25l-187 537h75l147 -450l152 450h72zM358 733l-149 -147l-29 25l125 168z" />
    <glyph glyph-name="thorn" unicode="&#xfe;" horiz-adv-x="587" 
d="M438.5 496q49.5 -32 76.5 -92.5t27 -144.5t-27 -145t-76 -92.5t-116 -31.5q-63 0 -107 32.5t-64 92.5v-327h-72v951h72v-336q20 60 64 92.5t107 32.5q66 0 115.5 -32zM467 273q0 95 -40.5 144t-117.5 49q-56 0 -96 -23.5t-61 -78.5v-210q21 -55 61 -79t96 -24
q77 0 117.5 49.5t40.5 144.5v28z" />
    <glyph glyph-name="ydieresis" unicode="&#xff;" horiz-adv-x="476" 
d="M461 518l-200 -558q-25 -72 -46.5 -110t-48 -55t-67.5 -17q-39 0 -69 14l12 58q28 -11 55 -11q22 0 37.5 11t29 35.5t29.5 70.5l9 25l-187 537h75l147 -450l152 450h72zM113 635.5q-13 13.5 -13 36.5q0 22 13 36t35 14t35.5 -14t13.5 -36q0 -23 -13.5 -36.5t-35.5 -13.5
t-35 13.5zM292.5 635.5q-13.5 13.5 -13.5 36.5q0 22 13.5 36t35.5 14t35 -14t13 -36q0 -23 -13 -36.5t-35 -13.5t-35.5 13.5z" />
    <glyph glyph-name="dotlessi" unicode="&#x131;" horiz-adv-x="233" 
d="M152 518v-518h-72v518h72z" />
    <glyph glyph-name="Ldot" unicode="&#x13f;" horiz-adv-x="549" 
d="M496 68v-68h-399v719h72v-651h327zM367.5 367q-14.5 15 -14.5 40t14.5 40.5t39.5 15.5t39.5 -15.5t14.5 -40.5t-14.5 -40t-39.5 -15t-39.5 15z" />
    <glyph glyph-name="ldot" unicode="&#x140;" horiz-adv-x="402" 
d="M152 739v-739h-72v739h72zM277.5 292q-14.5 15 -14.5 40t14.5 40.5t39.5 15.5t39.5 -15.5t14.5 -40.5t-14.5 -40t-39.5 -15t-39.5 15z" />
    <glyph glyph-name="Lslash" unicode="&#x141;" horiz-adv-x="528" 
d="M496 68v-68h-399v282l-82 -51v71l82 52v365h72v-320l184 116v-72l-184 -115v-260h327z" />
    <glyph glyph-name="lslash" unicode="&#x142;" horiz-adv-x="262" 
d="M252 428l-85 -56v-372h-72v324l-85 -56v62l85 56v353h72v-306l85 56v-61z" />
    <glyph glyph-name="OE" unicode="&#x152;" horiz-adv-x="1064" 
d="M1007 68v-68h-417v199q-25 -104 -86.5 -156.5t-154.5 -52.5q-90 0 -156.5 44.5t-102.5 128t-36 197.5t36 197t102.5 127.5t156.5 44.5q93 0 154.5 -52.5t86.5 -155.5v198h407v-68h-340v-248h310v-65h-310v-270h350zM585 379q0 89 -26 152t-77 96t-124 33t-124 -33
t-77.5 -96t-26.5 -152v-38q0 -89 26.5 -152.5t77.5 -96.5t124 -33t124 33.5t77 96.5t26 152v38z" />
    <glyph glyph-name="oe" unicode="&#x153;" horiz-adv-x="902" 
d="M857 246h-355q0 -99 38 -147t116 -48q49 0 93 12t79 31l14 -57q-32 -21 -80.5 -34t-103.5 -13q-71 0 -119.5 30t-72.5 88q-27 -57 -75 -87.5t-114 -30.5q-74 0 -126 33.5t-79 94t-27 141.5q0 80 27 141t79 94.5t126 33.5q67 0 115.5 -31.5t74.5 -88.5q26 57 73 88t112 31
q104 0 154.5 -68.5t50.5 -185.5v-27zM433 272q0 93 -40 143.5t-116 50.5q-77 0 -117 -50.5t-40 -143.5v-27q0 -92 40.5 -143t116.5 -51t116 51t40 143v27zM545.5 423.5q-37.5 -42.5 -42.5 -122.5h290q-7 165 -141 165q-69 0 -106.5 -42.5z" />
    <glyph glyph-name="Scaron" unicode="&#x160;" horiz-adv-x="551" 
d="M139 5.5q-58 15.5 -96 41.5l17 65q47 -27 93.5 -40t107.5 -13q79 0 120.5 30.5t41.5 96.5q0 40 -15 64.5t-48 41.5t-99 38q-67 21 -111.5 45.5t-71 63.5t-26.5 97q0 54 27 98t78.5 69.5t122.5 25.5q62 0 114.5 -17t91.5 -43l-16 -67q-41 28 -85.5 43t-101.5 15
q-76 0 -116.5 -31.5t-40.5 -89.5q0 -39 17 -64t52.5 -43t99.5 -39q74 -23 117 -46.5t65.5 -60t22.5 -95.5q0 -62 -27.5 -107t-81.5 -69.5t-130 -24.5q-64 0 -122 15.5zM413 919l-119 -155h-43l-119 155l26 25l114 -114l115 114z" />
    <glyph glyph-name="scaron" unicode="&#x161;" horiz-adv-x="441" 
d="M112.5 2.5q-48.5 12.5 -76.5 31.5l15 58q38 -20 77 -29.5t84 -9.5q117 0 117 84q0 25 -10 41t-33.5 27.5t-65.5 22.5l-16 4q-54 14 -88.5 31t-54 45t-19.5 71q0 40 20 74t61.5 54.5t100.5 20.5q50 0 92 -12.5t74 -32.5l-16 -61q-32 21 -68 32t-82 11q-55 0 -84 -21.5
t-29 -60.5q0 -25 11.5 -41t36.5 -26.5t73 -22.5l16 -4q48 -12 80 -28t51.5 -45t19.5 -75t-21.5 -80t-63.5 -52.5t-102 -18.5q-51 0 -99.5 12.5zM359 749l-119 -155h-43l-119 155l26 25l114 -114l115 114z" />
    <glyph glyph-name="Ydieresis" unicode="&#x178;" horiz-adv-x="597" 
d="M335 308v-308h-73v308l-239 411h80l196 -341l196 341h79zM172.5 785.5q-13.5 13.5 -13.5 36.5q0 22 13.5 35.5t35.5 13.5t35 -13.5t13 -35.5q0 -23 -13 -36.5t-35 -13.5t-35.5 13.5zM352 785.5q-13 13.5 -13 36.5q0 22 13 35.5t35 13.5t35.5 -13.5t13.5 -35.5
q0 -23 -13.5 -36.5t-35.5 -13.5t-35 13.5z" />
    <glyph glyph-name="Zcaron" unicode="&#x17d;" horiz-adv-x="568" 
d="M525 68v-68h-482v73l393 578h-383v68h462v-73l-392 -578h402zM423 919l-119 -155h-43l-119 155l26 25l114 -114l115 114z" />
    <glyph glyph-name="zcaron" unicode="&#x17e;" horiz-adv-x="489" 
d="M448 64v-64h-408v67l317 386h-307v65h388v-68l-316 -386h326zM384 749l-119 -155h-43l-119 155l26 25l114 -114l115 114z" />
    <glyph glyph-name="florin" unicode="&#x192;" horiz-adv-x="586" 
d="M386.5 640q-24.5 -19 -35.5 -53.5t-15 -90.5l-9 -98h188v-62h-193l-10 -109q-10 -120 -54 -178.5t-133 -58.5q-50 0 -92 20l16 65q31 -15 72 -15q44 0 68.5 19t35.5 53.5t15 90.5l10 113h-161v62h167l8 94q10 119 54 178t133 59q50 0 92 -20l-16 -66q-33 16 -72 16
q-44 0 -68.5 -19z" />
    <glyph glyph-name="dotlessj" unicode="&#x237;" horiz-adv-x="233" 
d="M15 -161q35 0 50 18.5t15 60.5v600h72v-589q0 -79 -33.5 -115t-98.5 -36q-40 0 -72 15l11 57q28 -11 56 -11z" />
    <glyph glyph-name="circumflex" unicode="&#x2c6;" horiz-adv-x="441" 
d="M335 586l-114 114l-114 -114l-27 25l119 155h44l119 -155z" />
    <glyph glyph-name="caron" unicode="&#x2c7;" horiz-adv-x="441" 
d="M361 749l-119 -155h-43l-119 155l26 25l115 -114l114 114z" />
    <glyph glyph-name="breve" unicode="&#x2d8;" horiz-adv-x="418" 
d="M114 633q-34 36 -34 103h44q1 -41 23.5 -62t61.5 -21t61.5 21t23.5 62h44q0 -67 -34 -103t-95 -36t-95 36z" />
    <glyph glyph-name="dotaccent" unicode="&#x2d9;" horiz-adv-x="258" 
d="M89.5 658q-14.5 15 -14.5 41q0 24 15 39.5t39 15.5t39 -15.5t15 -39.5q0 -26 -14.5 -41t-39.5 -15t-39.5 15z" />
    <glyph glyph-name="ring" unicode="&#x2da;" horiz-adv-x="352" 
d="M126 593.5q-22 12.5 -34 34.5t-12 48t12 47.5t34 34t50 12.5t50 -12.5t34 -34t12 -47.5t-12 -48t-34 -34.5t-50 -12.5t-50 12.5zM218 633q15 16 15 43t-15 42.5t-42 15.5t-42 -15.5t-15 -42.5t15 -43t42 -16t42 16z" />
    <glyph glyph-name="ogonek" unicode="&#x2db;" horiz-adv-x="346" 
d="M109.5 -197.5q-29.5 24.5 -29.5 67.5t38.5 81.5t114.5 71.5l32 -22q-45 -25 -70 -43.5t-37.5 -36.5t-12.5 -39t12.5 -33t35.5 -12q27 0 56 13l19 -55q-15 -8 -36 -12.5t-42 -4.5q-51 0 -80.5 24.5z" />
    <glyph glyph-name="tilde" unicode="&#x2dc;" horiz-adv-x="485" 
d="M190.5 665.5q-10.5 3.5 -21.5 3.5q-19 0 -33.5 -12.5t-26.5 -42.5l-29 17q27 96 93 96q15 0 30 -5.5t35 -16.5l31 -16q16 -9 26.5 -12.5t21.5 -3.5q19 0 33.5 12.5t26.5 41.5l29 -16q-27 -96 -93 -96q-15 0 -30.5 5.5t-34.5 15.5l-31 17q-16 9 -26.5 12.5z" />
    <glyph glyph-name="hungarumlaut" unicode="&#x2dd;" horiz-adv-x="465" 
d="M239 746l-127 -163l-32 20l101 181zM386 746l-127 -163l-32 20l101 181z" />
    <glyph glyph-name="gravecomb" unicode="&#x300;" 
d="M-88 733l52 46l125 -168l-28 -25z" />
    <glyph glyph-name="acutecomb" unicode="&#x301;" 
d="M89 733l-149 -147l-29 25l125 168z" />
    <glyph glyph-name="circumflexcomb" unicode="&#x302;" 
d="M114 586l-114 114l-114 -114l-27 25l119 155h44l119 -155z" />
    <glyph glyph-name="tildecomb" unicode="&#x303;" 
d="M-52.5 665.5q-10.5 3.5 -21.5 3.5q-19 0 -33.5 -12.5t-26.5 -42.5l-29 17q27 96 93 96q15 0 30 -5.5t35 -16.5l31 -16q16 -9 26.5 -12.5t21.5 -3.5q19 0 33.5 12.5t26.5 41.5l29 -16q-27 -96 -93 -96q-15 0 -30.5 5.5t-34.5 15.5l-31 17q-16 9 -26.5 12.5z" />
    <glyph glyph-name="macroncomb" unicode="&#x304;" 
d="M134 645h-268v55h268v-55z" />
    <glyph glyph-name="brevecomb" unicode="&#x306;" 
d="M-95 633q-34 36 -34 103h44q1 -41 23.5 -62t61.5 -21t61.5 21t23.5 62h44q0 -67 -34 -103t-95 -36t-95 36z" />
    <glyph glyph-name="dotaccentcomb" unicode="&#x307;" 
d="M-39.5 658q-14.5 15 -14.5 41q0 24 15 39.5t39 15.5t39 -15.5t15 -39.5q0 -26 -14.5 -41t-39.5 -15t-39.5 15z" />
    <glyph glyph-name="dieresiscomb" unicode="&#x308;" 
d="M-125 635.5q-13 13.5 -13 36.5q0 22 13 36t35 14t35.5 -14t13.5 -36q0 -23 -13.5 -36.5t-35.5 -13.5t-35 13.5zM54.5 635.5q-13.5 13.5 -13.5 36.5q0 22 13.5 36t35.5 14t35 -14t13 -36q0 -23 -13 -36.5t-35 -13.5t-35.5 13.5z" />
    <glyph glyph-name="ringcomb" unicode="&#x30a;" 
d="M-50 593.5q-22 12.5 -34 34.5t-12 48t12 47.5t34 34t50 12.5t50 -12.5t34 -34t12 -47.5t-12 -48t-34 -34.5t-50 -12.5t-50 12.5zM42 633q15 16 15 43t-15 42.5t-42 15.5t-42 -15.5t-15 -42.5t15 -43t42 -16t42 16z" />
    <glyph glyph-name="hungarumlautcomb" unicode="&#x30b;" 
d="M6 746l-127 -163l-32 20l101 181zM153 746l-127 -163l-32 20l101 181z" />
    <glyph glyph-name="caroncomb" unicode="&#x30c;" 
d="M140 749l-119 -155h-43l-119 155l26 25l114 -114l115 114z" />
    <glyph glyph-name="cedillacomb" unicode="&#x327;" 
d="M50 30l-35 -204h-65l60 204h40z" />
    <glyph glyph-name="ogonekcomb" unicode="&#x328;" 
d="M-64.5 -197.5q-29.5 24.5 -29.5 67.5t38.5 81.5t114.5 71.5l32 -22q-45 -25 -70 -43.5t-37.5 -36.5t-12.5 -39t12.5 -33t35.5 -12q27 0 56 13l19 -55q-15 -8 -36 -12.5t-42 -4.5q-51 0 -80.5 24.5z" />
    <glyph glyph-name="uni03BC" unicode="&#x3bc;" horiz-adv-x="553" 
d="M484 518v-518h-72v118q-43 -128 -162 -128q-63 0 -98 35v-237h-72v730h72v-341q0 -66 27.5 -96t83.5 -30q53 0 91 25t58 89v353h72z" />
    <glyph glyph-name="uni2011" unicode="&#x2011;" horiz-adv-x="390" 
d="M345 273h-300v60h300v-60z" />
    <glyph glyph-name="endash" unicode="&#x2013;" horiz-adv-x="510" 
d="M464 273h-419v60h419v-60z" />
    <glyph glyph-name="emdash" unicode="&#x2014;" horiz-adv-x="810" 
d="M764 273h-719v60h719v-60z" />
    <glyph glyph-name="quoteleft" unicode="&#x2018;" horiz-adv-x="176" 
d="M22 485l84 234h47l-51 -234h-80z" />
    <glyph glyph-name="quoteright" unicode="&#x2019;" horiz-adv-x="176" 
d="M153 719l-84 -234h-47l51 234h80z" />
    <glyph glyph-name="quotesinglbase" unicode="&#x201a;" horiz-adv-x="181" 
d="M146 103l-84 -234h-47l51 234h80z" />
    <glyph glyph-name="quotedblleft" unicode="&#x201c;" horiz-adv-x="328" 
d="M22 485l84 234h47l-51 -234h-80zM175 485l84 234h47l-51 -234h-80z" />
    <glyph glyph-name="quotedblright" unicode="&#x201d;" horiz-adv-x="328" 
d="M306 719l-84 -234h-47l51 234h80zM153 719l-84 -234h-47l51 234h80z" />
    <glyph glyph-name="quotedblbase" unicode="&#x201e;" horiz-adv-x="333" 
d="M299 103l-84 -234h-47l51 234h80zM146 103l-84 -234h-47l51 234h80z" />
    <glyph glyph-name="dagger" unicode="&#x2020;" horiz-adv-x="520" 
d="M475 475h-178v-575h-74v575h-178v67h178v177h74v-177h178v-67z" />
    <glyph glyph-name="daggerdbl" unicode="&#x2021;" horiz-adv-x="520" 
d="M297 475v-331h178v-67h-178v-177h-74v177h-178v67h178v331h-178v67h178v177h74v-177h178v-67h-178z" />
    <glyph glyph-name="bullet" unicode="&#x2022;" horiz-adv-x="287" 
d="M96 282.5q-21 12.5 -32 34t-11 47.5t11 47.5t32 34t48 12.5t47.5 -12.5t32 -34t11.5 -47.5t-11.5 -47.5t-32 -34t-47.5 -12.5t-48 12.5z" />
    <glyph glyph-name="ellipsis" unicode="&#x2026;" horiz-adv-x="657" 
d="M146.5 85.5q14.5 -15.5 14.5 -40.5t-14.5 -40t-39.5 -15t-39.5 15t-14.5 40t14.5 40.5t39.5 15.5t39.5 -15.5zM479.5 85.5q14.5 -15.5 14.5 -40.5t-14.5 -40t-39.5 -15h-1h-1q-25 0 -39.5 15t-14.5 40t14.5 40.5t39.5 15.5h1h1q25 0 39.5 -15.5z" />
    <glyph glyph-name="perthousand" unicode="&#x2030;" horiz-adv-x="1042" 
d="M78 440q-35 44 -35 122q0 79 35 122.5t101 43.5t100.5 -43.5t34.5 -122.5t-35 -122.5t-100 -43.5q-66 0 -101 44zM612 719l-436 -719h-66l437 719h65zM239 473.5q20 27.5 20 80.5v17q0 107 -80 107t-80 -107v-17q0 -108 80 -108q40 0 60 27.5zM442 32q-35 44 -35 122
q0 79 35 122.5t100 43.5q66 0 101 -43.5t35 -122.5t-35.5 -122.5t-100.5 -43.5t-100 44zM763.5 32q-35.5 44 -35.5 122q0 79 35.5 122.5t100.5 43.5q66 0 101 -43.5t35 -122.5t-35.5 -122.5t-100.5 -43.5t-100.5 44zM622 146v17q0 107 -80 107q-40 0 -59.5 -26.5
t-19.5 -80.5v-17q0 -108 79 -108q80 0 80 108zM944 146v17q0 107 -80 107t-80 -107v-17q0 -108 80 -108t80 108z" />
    <glyph glyph-name="guilsinglleft" unicode="&#x2039;" horiz-adv-x="251" 
d="M157 90l-122 214l122 214h79l-119 -214l119 -214h-79z" />
    <glyph glyph-name="guilsinglright" unicode="&#x203a;" horiz-adv-x="251" 
d="M94 518l122 -214l-122 -214h-79l119 214l-119 214h79z" />
    <glyph glyph-name="fraction" unicode="&#x2044;" horiz-adv-x="293" 
d="M332 719h65l-436 -719h-66z" />
    <glyph glyph-name="four.superior" unicode="&#x2074;" horiz-adv-x="320" 
d="M306 608h-48v-98h-53v98h-185v51l165 246h73v-248h48v-49zM205 657v197l-132 -197h132z" />
    <glyph glyph-name="Euro" unicode="&#x20ac;" horiz-adv-x="689" 
d="M651 57q-40 -30 -94.5 -48.5t-117.5 -18.5q-125 0 -204 68t-102 197h-100v52h93q-2 36 -2 56q0 21 1 31h-92v52h96q19 138 98.5 210.5t207.5 72.5q64 0 118.5 -19.5t91.5 -48.5l-22 -64q-43 30 -87 46.5t-99 16.5q-102 0 -160.5 -54.5t-71.5 -159.5h283v-52h-287v-10v-43
q0 -23 1 -34h286v-52h-280q18 -96 78 -146t156 -50q54 0 97.5 15.5t89.5 43.5z" />
    <glyph glyph-name="uni2117" unicode="&#x2117;" horiz-adv-x="840" 
d="M613.5 690q82.5 -47 127.5 -132.5t45 -198.5q0 -112 -45 -197t-127 -132t-191 -47q-111 0 -194.5 47t-129 132t-45.5 197t45.5 198t129.5 133t194 47q108 0 190.5 -47zM584 79q67 37 102.5 105t35.5 160v33q0 92 -35.5 160t-102.5 104.5t-161 36.5q-96 0 -164.5 -36.5
t-104.5 -104.5t-36 -160v-33q0 -92 36 -160t104.5 -105t164.5 -37q94 0 161 37zM522.5 538q31.5 -15 48.5 -43t17 -66q0 -57 -37.5 -90t-102.5 -33h-91v-142h-62v389h153q43 0 74.5 -15zM524 433q0 33 -20 48.5t-63 15.5h-84v-136h84q43 0 63 15.5t20 49.5v7z" />
    <glyph glyph-name="trademark" unicode="&#x2122;" horiz-adv-x="714" 
d="M301 673h-111v-305h-47v305h-110v46h268v-46zM682 719v-351h-45v297l-94 -247h-54l-93 244v-294h-45v351h69l97 -254l96 254h69z" />
    <glyph glyph-name="minus" unicode="&#x2212;" horiz-adv-x="550" 
d="M505 398v-66h-460v66h460z" />
    <glyph glyph-name="uniFEFF" unicode="&#xfeff;" 
 />
    <glyph glyph-name="periodcentered.loclCAT.case" horiz-adv-x="21" 
d="M-160.5 367q-14.5 15 -14.5 40t14.5 40.5t39.5 15.5t39.5 -15.5t14.5 -40.5t-14.5 -40t-39.5 -15t-39.5 15z" />
    <glyph glyph-name="periodcentered.loclCAT" horiz-adv-x="169" 
d="M44.5 292q-14.5 15 -14.5 40t14.5 40.5t39.5 15.5t39.5 -15.5t14.5 -40.5t-14.5 -40t-39.5 -15t-39.5 15z" />
    <glyph glyph-name="uni0308.case" 
d="M-125.5 785.5q-13.5 13.5 -13.5 36.5q0 22 13.5 35.5t35.5 13.5t35 -13.5t13 -35.5q0 -23 -13 -36.5t-35 -13.5t-35.5 13.5zM54 785.5q-13 13.5 -13 36.5q0 22 13 35.5t35 13.5t35.5 -13.5t13.5 -35.5q0 -23 -13.5 -36.5t-35.5 -13.5t-35 13.5z" />
    <glyph glyph-name="gravecomb.case" 
d="M-100 871l42 55l159 -137l-22 -30z" />
    <glyph glyph-name="acutecomb.case" 
d="M100 871l-178 -112l-22 30l159 137z" />
    <glyph glyph-name="uni0302.case" 
d="M114 763l-115 115l-114 -115l-26 25l119 155h43l119 -155z" />
    <glyph glyph-name="uni030C.case" 
d="M140 919l-119 -155h-43l-119 155l26 25l114 -114l115 114z" />
    <glyph glyph-name="uni030A.case" 
d="M-50 773.5q-22 12.5 -34 34.5t-12 48t12 47.5t34 34t50 12.5t50 -12.5t34 -34t12 -47.5t-12 -48t-34 -34.5t-50 -12.5t-50 12.5zM42 813q15 16 15 43t-15 42.5t-42 15.5t-42 -15.5t-15 -42.5t15 -43t42 -16t42 16z" />
    <glyph glyph-name="tildecomb.case" 
d="M-52.5 833.5q-10.5 3.5 -21.5 3.5q-19 0 -33.5 -12.5t-26.5 -42.5l-29 17q27 96 93 96q15 0 30 -5.5t35 -16.5l31 -16q16 -9 26.5 -12.5t21.5 -3.5q19 0 33.5 12.5t26.5 41.5l29 -16q-27 -96 -93 -96q-15 0 -30.5 5.5t-34.5 15.5l-31 17q-16 9 -26.5 12.5z" />
    <glyph glyph-name="uni0308.narrow" 
d="M-105 635.5q-13 13.5 -13 36.5q0 22 13 36t35 14t35 -14t13 -36q0 -23 -13 -36.5t-35 -13.5t-35 13.5zM35 635.5q-13 13.5 -13 36.5q0 22 13 36t35 14t35 -14t13 -36q0 -23 -13 -36.5t-35 -13.5t-35 13.5z" />
    <glyph glyph-name="gravecomb.narrow" 
d="M-86 735l53 44l120 -169l-29 -24z" />
    <glyph glyph-name="acutecomb.narrow" 
d="M87 735l-145 -149l-29 24l120 169z" />
    <glyph glyph-name="uni0302.narrow" 
d="M102 586l-102 116l-102 -116l-28 23l104 157h52l104 -157z" />
    <glyph glyph-name="Cornamusa" horiz-adv-x="893" 
d="M413 694v23h23v22h21v-22h24v-23h-24v-23h-21v23h-23zM236.5 609.5q13.5 22.5 36.5 35.5t50 13q25 0 49 -12q26 12 50 12q8 0 24 -2q16 2 26 2q24 0 48 -12q27 12 51 12q27 0 49.5 -13t35.5 -35.5t13 -49.5v-50h-48v50q0 19 -15 33.5t-35 14.5q-6 0 -12 -2q12 -24 12 -46
v-50h-51v50q0 20 -14 34t-34 14v-98h-50v98q-20 0 -35 -14.5t-15 -33.5v-50h-49v50q0 26 13 46q-3 0 -6 1t-7 1q-21 0 -35.5 -14t-14.5 -34v-50h-50v50q0 27 13.5 49.5zM595 472v-50h-297v50h297zM247 43q-91 53 -144 143.5t-53 198.5h248v-67q28 32 66 49.5t82 17.5
q47 0 88 -20t69 -55.5t37 -79.5q26 34 40.5 73.5t14.5 81.5h148q0 -108 -53.5 -198.5t-144.5 -143.5t-199 -53t-199 53zM249 188v148h-145q11 -82 58 -148.5t118 -105.5q-31 48 -31 106zM607.5 78q74.5 39 123 106.5t59.5 151.5h-50q-11 -69 -53 -125.5t-105 -89t-136 -32.5
q-27 0 -49.5 13.5t-35.5 36t-13 49.5t13 49.5t35.5 35.5t49.5 13t50 -13t36.5 -35.5t13.5 -49.5q0 -20 -5 -31q25 9 54 31q0 40 -20 74t-54 54t-75 20q-40 0 -74 -20t-54 -54t-20 -74t20 -74t54 -54.5t74 -20.5q87 0 161.5 39zM481 153q14 14 14 35q0 20 -14 34.5t-35 14.5
q-20 0 -34.5 -14.5t-14.5 -34.5q0 -21 14.5 -35t34.5 -14q21 0 35 14z" />
    </font>
</defs>
</svg>
