<?xml version="1.0" encoding="utf-8"?>
<!-- Generator: Adobe Illustrator 24.2.3, SVG Export Plug-In . SVG Version: 6.00 Build 0)  -->
<svg version="1.1" id="Capa_1" xmlns="http://www.w3.org/2000/svg" xmlns:xlink="http://www.w3.org/1999/xlink" x="0px" y="0px"
	 viewBox="0 0 272.8 258" style="enable-background:new 0 0 272.8 258;" xml:space="preserve">
<style type="text/css">
	.st0{fill:#FFFFFF;}
</style>
<g>
	<polygon class="st0" points="187.6,108.8 136.4,108.8 85.3,108.8 85.3,100.3 85.3,91.7 136.4,91.7 187.6,91.7 187.6,100.3 	"/>
	<path class="st0" d="M179,27.8c-6.2,0-12,1.8-17.1,4.7c-5-2.9-10.8-4.7-17-4.7c-3,0-5.9,0.4-8.7,1.2c-2.7-0.7-5.4-1.2-8.3-1.2
		c-6.2,0-11.9,1.8-17,4.7c-5-2.9-10.9-4.7-17.1-4.7c-18.8,0-34.1,15.3-34.1,34.1V79h17.1V61.9c0-9.4,7.6-17.1,17.1-17.1
		c1.5,0,3,0.3,4.4,0.6c-2.7,4.9-4.4,10.4-4.4,16.4v17.1H111v-17c0-9.4,7.6-17.1,17.1-17.1v34.1h17.1V44.8c9.4,0,17.1,7.6,17.1,17.1
		V79H179V61.9c0-6-1.7-11.5-4.4-16.4c1.4-0.4,2.9-0.6,4.4-0.6c9.4,0,17.1,7.6,17.1,17.1v17.1h17.1V61.9
		C213.1,43,197.9,27.8,179,27.8L179,27.8z"/>
	<polygon class="st0" points="140.1,8 140.1,0 132.7,0 132.7,8 124.7,8 124.7,15.5 132.7,15.5 132.7,23.5 140.1,23.5 140.1,15.5 
		148.2,15.5 148.2,8 	"/>
	<path class="st0" d="M221.7,121.5c0,20.2-7,38.7-18.7,53.3c-6.8-30.5-34-53.3-66.5-53.3c-20.4,0-38.7,9-51.2,23.2v-23.2H0
		C0,196.9,61.1,258,136.4,258s136.4-61.1,136.4-136.4h-51.1L221.7,121.5z M18.4,138.6h49.8v51.2c0,13.3,3.9,25.7,10.5,36.3
		C46.7,208.3,23.8,176.3,18.4,138.6z M136.4,240.9c-28.2,0-51.2-22.9-51.2-51.2s22.9-51.1,51.2-51.1s51.1,22.9,51.1,51
		c-5.8,4.4-12.1,8-18.9,10.8c1.1-3.4,1.9-6.9,1.9-10.7c0-19.3-15.3-34.1-34.1-34.1s-34.1,15.2-34.1,34.1s15.2,34.1,34.1,34.1
		c50.7,0,92.8-36.9,100.9-85.2h17.3C246.4,196.4,196.5,240.9,136.4,240.9L136.4,240.9z M153.5,189.7c0,9.4-7.6,17-17,17
		s-17-7.6-17-17s7.6-17,17-17S153.5,180.3,153.5,189.7z"/>
</g>
</svg>
